<?xml version="1.0" encoding="UTF-8"?>
<svg xmlns="http://www.w3.org/2000/svg" version="1.1" viewBox="0 0 100 100">
  <defs>
    <style>
      .cls-1 {
        fill: #231f20;
      }
    </style>
  </defs>
  <!-- Generator: Adobe Illustrator 28.7.7, SVG Export Plug-In . SVG Version: 1.2.0 Build 194)  -->
  <g>
    <g id="Layer_1">
      <g>
        <path class="cls-1" d="M16.5,20.1h2.4c.7,0,1.1.1,1.4.4s.4.6.4,1.2-.1.9-.4,1.2-.8.4-1.4.4h-8.6c-.7,0-1.2-.1-1.4-.4s-.4-.6-.4-1.2.1-1,.4-1.2.8-.4,1.4-.4h2.7V7.8l-1.6.4c-.3,0-.5.1-.6.1s-.3,0-.4,0c-.4,0-.7-.1-.9-.4s-.3-.6-.3-1.1.1-.6.4-.9.6-.4,1.1-.5l3.6-1c.3,0,.6-.1.7-.2s.4,0,.5,0c.4,0,.7.1.8.3s.2.6.2,1.1v14.5Z"/>
        <path class="cls-1" d="M48.4,20h5.1c0-.6.1-1,.4-1.2.3-.2.7-.4,1.2-.4s.8.1,1,.4.4.6.4,1v2.5c-.1.4-.2.7-.3.8s-.3.2-.7.2h-10.5c-.6,0-1-.1-1.3-.4s-.5-.6-.5-1,0-.7.3-1.1.5-.7.9-1.1l6-5.8c.6-.6,1.1-1.2,1.4-1.9.3-.6.5-1.2.5-1.9s-.2-1.5-.6-2c-.4-.4-1.1-.6-1.9-.6s-1,0-1.4.2-.7.4-.9.6c-.1.1-.3.3-.4.6-.5.8-1,1.1-1.6,1.1s-.9-.2-1.1-.5-.4-.8-.4-1.4,0-1.1.2-1.5.5-.6.9-1c.8-.5,1.6-.9,2.4-1.1s1.8-.4,2.7-.4c1.8,0,3.3.5,4.4,1.5,1.1,1,1.6,2.3,1.6,4s-.3,2.2-.8,3.2c-.6,1-1.4,2.1-2.6,3.1l-4.4,3.8Z"/>
        <path class="cls-1" d="M89,13.2c1.1.4,2,.9,2.5,1.7s.8,1.7.8,3c0,1.8-.6,3.3-1.9,4.3s-2.9,1.6-5,1.6-3.1-.3-4.3-.8-1.7-1.3-1.7-2.1.2-.9.5-1.2c.3-.3.7-.4,1.2-.4s.9.2,1.9.7,1.9.7,2.6.7,1.6-.2,2.1-.7.7-1.2.7-2.1-.2-1.7-.6-2.1-1.2-.7-2.4-.7c-.6,0-1-.1-1.2-.4-.2-.2-.3-.6-.3-1.2s.4-1.2,1.3-1.3c.1,0,.2,0,.3,0,1.1-.1,1.7-.4,2.1-.8s.5-.9.5-1.7-.2-1.2-.6-1.6c-.4-.4-.9-.6-1.6-.6s-1.5.2-2.4.7-1.5.7-1.9.7-.7-.1-.9-.4c-.2-.2-.3-.6-.3-.9,0-.8.6-1.5,1.7-2.1s2.6-.9,4.3-.9,3.1.4,4.1,1.3c1,.9,1.5,2,1.5,3.5s-.2,1.8-.7,2.4-1.2,1.2-2.2,1.7Z"/>
        <path class="cls-1" d="M18.2,51.9s0,0,0,0c0,0,0,0,.1,0,.2,0,.4-.1.7-.4s.5-.4.6-.4c.4,0,.7.1,1,.3s.4.5.4.8,0,.2,0,.3,0,.2,0,.3l-.3,1.1c0,.2-.2.4-.3.5s-.3.1-.5.1h-1.6v1.8h.9c0,0,.2,0,.3,0s.2,0,.3,0c.4,0,.6.1.9.4s.4.6.4,1-.1.8-.4,1.1-.8.3-1.4.3h-6.2c-.7,0-1.1-.1-1.4-.3s-.4-.6-.4-1.1.1-.9.4-1.1c.3-.2.8-.3,1.4-.3h2.1v-1.8h-6.8c-.3,0-.4,0-.6-.2s-.2-.4-.2-.7v-.9c0-.4,0-.6,0-.8,0-.2.1-.4.3-.6l6.2-10.5c.1-.2.3-.4.4-.5s.2,0,.4,0,.2,0,.2,0,.1,0,.2,0l2.6.5c.1,0,.3.1.3.2s.1.3.1.5v10.3ZM15,43.8l-4.6,8.1h4.6v-8.1Z"/>
        <path class="cls-1" d="M47.6,44v3.4c.6-.2,1.2-.3,1.7-.4.5,0,1-.1,1.4-.1,1.8,0,3.2.6,4.3,1.7s1.6,2.7,1.6,4.6-.7,3.8-2,4.9-3.3,1.7-5.8,1.7-3.2-.2-4.1-.6-1.4-1-1.4-1.8.2-.9.5-1.2c.3-.3.7-.5,1.2-.5s.9.1,1.8.4,1.8.4,2.4.4c1.1,0,2-.3,2.6-.9.6-.6.9-1.4.9-2.4s-.3-1.8-.9-2.4c-.6-.6-1.3-.9-2.3-.9s-1.4.2-2.2.6-1.4.6-1.8.6c-.6,0-1-.2-1.2-.5s-.4-.8-.4-1.6v-7.1c0-.5,0-.9.2-1s.4-.2.7-.2h9.6c.6,0,1,.1,1.3.4.2.2.4.7.4,1.3s-.1,1-.4,1.3-.7.4-1.3.4h-7Z"/>
        <path class="cls-1" d="M83.5,48.9c.5-.5,1-.9,1.7-1.2s1.4-.4,2.1-.4c1.6,0,2.9.6,4,1.8s1.6,2.7,1.6,4.4-.6,3.4-1.8,4.5c-1.2,1.1-2.8,1.7-4.8,1.7s-3.7-.8-4.9-2.3c-1.2-1.5-1.8-3.6-1.8-6.2s.9-5.9,2.8-7.9c1.8-2,4.3-3,7.3-3s1.7,0,2.2.2.7.4.7.8c0,.9-.7,1.4-2.1,1.5-.6,0-1,0-1.4.1-1.5.2-2.7.7-3.6,1.7-.9,1-1.6,2.4-2,4.3ZM89.2,53.7c0-1-.3-1.7-.8-2.4-.5-.6-1.2-.9-2-.9s-1.5.3-2,.9c-.5.6-.8,1.3-.8,2.2s.3,1.8.8,2.4c.6.6,1.3.9,2.1.9s1.4-.3,1.9-.9.8-1.3.8-2.3Z"/>
        <path class="cls-1" d="M19.5,78.3l-4.7,16.5c0,.3-.2.4-.3.5-.1,0-.3.1-.6.1h-2.7c-.1,0-.3,0-.4-.1s-.1-.2-.1-.3,0-.2,0-.3,0-.1,0-.2l5.2-14.5h-6.3v.3c-.1.3-.3.6-.5.8-.2.2-.5.3-.9.3s-.7,0-.9-.3-.3-.5-.3-.9,0,0,0-.2,0-.1,0-.2l.3-2.3c0-.3.1-.5.3-.6s.4-.2.7-.2h10.4c.3,0,.5,0,.6.2s.2.3.2.6v.8Z"/>
        <path class="cls-1" d="M53.6,85.8c1.1.4,2,1,2.5,1.8s.9,1.7.9,2.7c0,1.6-.6,2.9-1.9,3.9s-2.9,1.5-4.9,1.5-3.6-.5-4.9-1.5-1.9-2.3-1.9-3.9.3-2,.9-2.8c.6-.8,1.4-1.4,2.5-1.8-1.1-.5-1.9-1.1-2.4-1.8s-.8-1.6-.8-2.5c0-1.5.6-2.7,1.8-3.7s2.8-1.5,4.7-1.5,3.5.5,4.7,1.5,1.9,2.2,1.9,3.7-.3,1.8-.8,2.5c-.6.7-1.4,1.3-2.4,1.8ZM50.3,87.4c-.9,0-1.6.2-2.2.7s-.8,1.2-.8,2,.3,1.4.8,2c.6.5,1.3.8,2.2.8s1.6-.2,2.2-.7.8-1.2.8-2-.3-1.5-.8-2-1.3-.8-2.2-.8ZM50.3,79c-.8,0-1.5.2-2,.7s-.8,1.1-.8,1.8.3,1.4.8,1.8,1.2.7,2,.7,1.5-.2,2-.7c.5-.5.8-1.1.8-1.9s-.3-1.4-.8-1.8-1.2-.7-2-.7Z"/>
        <path class="cls-1" d="M89,87.1c-.5.5-1,1-1.7,1.2s-1.4.4-2.1.4c-1.6,0-2.9-.6-4-1.8s-1.6-2.7-1.6-4.4.6-3.4,1.8-4.5c1.2-1.1,2.8-1.7,4.8-1.7s3.7.8,4.9,2.3c1.2,1.5,1.8,3.6,1.8,6.2s-.9,5.9-2.8,7.9-4.3,3-7.3,3-1.8,0-2.2-.3-.7-.4-.7-.8c0-.9.7-1.4,2.1-1.4.6,0,1.1,0,1.4-.1,1.5-.2,2.8-.7,3.6-1.7.9-.9,1.5-2.4,1.9-4.3ZM88.9,82.5c0-1-.3-1.8-.8-2.4-.6-.6-1.3-.9-2.1-.9s-1.5.3-1.9.9c-.5.6-.7,1.3-.7,2.3s.3,1.8.8,2.4,1.2.9,2,.9,1.5-.3,2-.9.8-1.3.8-2.2Z"/>
      </g>
    </g>
  </g>
</svg>