<?xml version="1.0" encoding="UTF-8"?>
<svg xmlns="http://www.w3.org/2000/svg" version="1.1" viewBox="0 0 100 100">
  <!-- Generator: Adobe Illustrator 28.7.3, SVG Export Plug-In . SVG Version: 1.2.0 Build 164)  -->
  <g>
    <g id="Layer_1">
      <g>
        <path d="M85.5,7.5H14.5c-6.6,0-12,5.4-12,12v61c0,6.6,5.4,12,12,12h71c6.6,0,12-5.4,12-12V19.5c0-6.6-5.4-12-12-12ZM91.5,80.5c0,3.314-2.686,6-6,6H14.5c-3.314,0-6-2.686-6-6v-48c0-3.314,2.686-6,6-6h71c3.314,0,6,2.686,6,6v48Z"/>
        <rect x="11.5" y="29.5" width="23.667" height="25.5" rx="3" ry="3"/>
        <rect x="38.167" y="29.5" width="23.667" height="25.5" rx="3" ry="3"/>
        <rect x="64.833" y="29.5" width="23.667" height="25.5" rx="3" ry="3"/>
        <rect x="11.5" y="58" width="23.667" height="25.5" rx="3" ry="3"/>
        <rect x="38.167" y="58" width="23.667" height="25.5" rx="3" ry="3"/>
        <rect x="64.833" y="58" width="23.667" height="25.5" rx="3" ry="3"/>
      </g>
    </g>
  </g>
</svg>