<?xml version="1.0" encoding="UTF-8"?>
<svg xmlns="http://www.w3.org/2000/svg" version="1.1" viewBox="0 0 100 100">
  <!-- Generator: Adobe Illustrator 28.7.3, SVG Export Plug-In . SVG Version: 1.2.0 Build 164)  -->
  <g>
    <g id="Layer_1">
      <g id="Layer_1-2" data-name="Layer_1">
        <path d="M50,4.99C25.18,4.99,5,25.19,5,50.01s20.18,45,45,45,45-20.18,45-45S74.82,4.99,50,4.99ZM50,18.26c3.63,0,6.57,2.94,6.57,6.57s-2.94,6.57-6.57,6.57-6.57-2.94-6.57-6.57,2.94-6.57,6.57-6.57ZM71.19,37.6c-.3.18-5.99,3.62-13.14,4.96-1.22.23-2.1,1.31-2.1,2.56v3.37c0,2.37.7,4.67,2.02,6.63,3.24,4.78,5.95,10.3,8.24,16.78.62,1.74-.3,3.66-2.04,4.27-.37.13-.75.19-1.12.19-1.38,0-2.68-.86-3.16-2.23-2.65-7.49-5.88-13.55-9.88-18.52-4,4.96-7.23,11.02-9.88,18.52-.48,1.37-1.77,2.23-3.16,2.23-.37,0-.75-.06-1.12-.19-1.74-.62-2.65-2.53-2.04-4.27,2.29-6.47,5-12,8.24-16.78,1.32-1.96,2.02-4.26,2.02-6.63v-3.37c0-1.25-.88-2.33-2.1-2.56-7.17-1.34-12.84-4.78-13.14-4.96-1.58-.96-2.07-3.02-1.11-4.6s3.02-2.07,4.6-1.11c.07.04,7.5,4.5,15.09,4.51h5.19c7.65,0,15.03-4.46,15.1-4.5,1.58-.96,3.64-.47,4.6,1.11.96,1.58.47,3.64-1.11,4.6h-.01Z"/>
      </g>
    </g>
  </g>
</svg>