<?xml version="1.0" encoding="UTF-8"?>
<svg xmlns="http://www.w3.org/2000/svg" version="1.1" viewBox="0 0 384 512">
  <!-- Generator: Adobe Illustrator 28.7.3, SVG Export Plug-In . SVG Version: 1.2.0 Build 164)  -->
  <g>
    <g id="Layer_1">
      <path d="M339.9,282.1c14.4,0,26.2-11.7,26.2-26.2s-11.7-26.2-26.2-26.2h-121.8c0,0,0-121.7,0-121.7,0-14.4-11.7-26.2-26.2-26.2s-26.2,11.7-26.2,26.2v121.8c0,0-121.7,0-121.7,0-14.4,0-26.2,11.7-26.2,26.2s11.7,26.2,26.2,26.2h121.8c0,0,0,121.7,0,121.7,0,14.4,11.7,26.2,26.2,26.2s26.2-11.7,26.2-26.2v-121.8c0,0,121.7,0,121.7,0Z"/>
    </g>
  </g>
</svg>