<?xml version="1.0" encoding="UTF-8"?>
<svg xmlns="http://www.w3.org/2000/svg" version="1.1" viewBox="0 0 100 100">
  <defs>
    <style>
      .cls-1 {
        fill: #231f20;
      }
    </style>
  </defs>
  <!-- Generator: Adobe Illustrator 28.7.7, SVG Export Plug-In . SVG Version: 1.2.0 Build 194)  -->
  <g>
    <g id="Layer_1">
      <g>
        <path class="cls-1" d="M22,19.5h.2c.5,0,.9.1,1.2.4s.4.7.4,1.2-.1,1-.4,1.2-.8.4-1.4.4h-4.4c-.7,0-1.2-.1-1.4-.4s-.4-.7-.4-1.3.1-1,.4-1.2.8-.4,1.4-.4h.5l-.6-1.7h-6.3l-.6,1.7h.5c.7,0,1.1.1,1.4.4s.4.7.4,1.2-.1,1-.4,1.2-.8.4-1.4.4h-3.8c-.7,0-1.2-.1-1.4-.4s-.4-.7-.4-1.2.1-.9.4-1.2.7-.4,1.2-.4h.2l3.9-10.9h-1.2c-.7,0-1.1-.1-1.4-.4s-.4-.7-.4-1.2.1-1,.4-1.2.8-.4,1.4-.4h5.5c.9,0,1.5.5,1.8,1.4h0s4.6,12.8,4.6,12.8ZM14.4,8.6l-2.1,6.2h4.2l-2.1-6.2Z"/>
        <path class="cls-1" d="M55.6,13.5c1.1.4,1.8.9,2.3,1.6s.7,1.5.7,2.6-.2,1.7-.6,2.4-1,1.3-1.8,1.8c-.5.3-1,.5-1.6.6-.6.1-1.4.2-2.5.2h-7.6c-.6,0-1.1-.1-1.4-.4s-.4-.7-.4-1.2.1-.9.4-1.2c.3-.3.7-.4,1.2-.4h.3v-10.9h-.3c-.5,0-.9-.1-1.2-.4-.3-.3-.4-.7-.4-1.2s.1-1,.4-1.2.7-.4,1.4-.4h6.7c2.1,0,3.6.4,4.7,1.2,1.1.8,1.6,2,1.6,3.5s-.2,1.4-.5,2c-.3.6-.8,1.1-1.5,1.4ZM48.1,8.5v3.7h2c1.2,0,2-.1,2.5-.4.5-.3.7-.8.7-1.4s-.2-1.1-.7-1.4c-.4-.3-1.2-.4-2.2-.4h-2.4ZM48.1,15.1v4.5h2.2c1.6,0,2.6-.2,3.3-.5s1-.9,1-1.7-.3-1.4-.9-1.7-1.7-.5-3.2-.5h-2.3Z"/>
        <path class="cls-1" d="M91.3,5.8c.2-.4.4-.6.6-.7s.5-.2.8-.2c.5,0,.8.1,1,.4s.3.7.3,1.3v3.8c0,.7,0,1.1-.3,1.4-.2.2-.6.4-1.2.4s-.7,0-.9-.3c-.2-.2-.4-.6-.6-1.1-.3-.9-.7-1.6-1.2-2s-1.3-.6-2.3-.6c-1.5,0-2.7.5-3.5,1.5s-1.2,2.5-1.2,4.4.4,3.4,1.2,4.4,2,1.5,3.5,1.5,2.2-.3,3.4-1,2-1,2.3-1,.7.2,1,.5c.3.3.4.7.4,1.2,0,.9-.8,1.7-2.3,2.4s-3.2,1.1-5.1,1.1-4.6-.8-6.2-2.5-2.4-3.9-2.4-6.6.8-4.8,2.4-6.5,3.6-2.6,6.1-2.6,1.4,0,2.1.2,1.4.4,2.2.7Z"/>
        <path class="cls-1" d="M8.5,55.5v-10.9h-.2c-.5,0-.9-.1-1.2-.4s-.4-.7-.4-1.2.1-1,.4-1.2.8-.4,1.4-.4h3.6c2,0,3.5,0,4.5.3s1.8.5,2.4.9c1.2.7,2.1,1.7,2.7,3s.9,2.8.9,4.5-.4,3.4-1.1,4.7c-.7,1.4-1.7,2.4-3.1,3.1-.6.3-1.3.5-2.1.7-.8.1-2,.2-3.6.2h-4.4c-.7,0-1.2-.1-1.4-.4-.3-.2-.4-.7-.4-1.3s.1-.9.4-1.2.7-.4,1.2-.4h.2ZM12.3,44.5v11h.8c1.8,0,3.2-.5,4.1-1.4s1.3-2.3,1.3-4.2-.4-3.2-1.3-4.1-2.2-1.4-4-1.4-.4,0-.5,0-.2,0-.3,0Z"/>
        <path class="cls-1" d="M54.9,44.4h-6.8v3.8h2.6v-.2c0-.6.1-1,.4-1.2s.6-.4,1.1-.4.8.1,1.1.4c.3.2.4.6.4.9s0,0,0,.2,0,.2,0,.3v3c0,.7-.1,1.1-.4,1.4s-.6.4-1.1.4-.9-.1-1.1-.4-.4-.7-.4-1.2v-.3h-2.6v4.4h6.8v-1.7c0-.7.1-1.1.4-1.4.2-.3.7-.4,1.2-.4s1,.1,1.2.4c.2.3.4.8.4,1.4v3.5c0,.5-.1.9-.3,1.1s-.6.3-1.2.3h-12c-.6,0-1.1-.1-1.4-.4s-.4-.7-.4-1.2.1-.9.4-1.2.6-.4,1.2-.4h.2v-10.9h-.2c-.5,0-.9-.1-1.1-.4s-.4-.7-.4-1.2.1-1,.4-1.2.7-.4,1.4-.4h12c.6,0,1,0,1.2.3.2.2.3.5.3,1.1v3.3c0,.7-.1,1.1-.4,1.4s-.6.4-1.2.4-1-.1-1.2-.4c-.2-.3-.4-.8-.4-1.4v-1.5Z"/>
        <path class="cls-1" d="M91,44.4h-6.8v3.8h2.6v-.2c0-.5.1-1,.4-1.2.2-.3.6-.4,1.1-.4s.8.1,1.1.4c.3.2.4.6.4.9v3.5c0,.7-.1,1.1-.4,1.4s-.6.4-1.1.4-.9-.1-1.1-.4c-.2-.3-.4-.7-.4-1.2v-.3h-2.6v4.3h.8c.6,0,1.1.1,1.4.4.3.2.4.7.4,1.2s-.1,1-.4,1.2-.7.4-1.4.4h-4.4c-.6,0-1.1-.1-1.4-.4s-.4-.7-.4-1.2.1-.9.4-1.2.6-.4,1.2-.4h.2v-10.9h-.2c-.5,0-.9-.1-1.2-.4s-.4-.7-.4-1.2.1-1,.4-1.2.7-.4,1.4-.4h12c.6,0,1,0,1.2.3.2.2.3.5.3,1.1v3.3c0,.7-.1,1.1-.4,1.4-.2.3-.7.4-1.2.4s-1-.1-1.2-.4-.4-.8-.4-1.4v-1.5Z"/>
        <path class="cls-1" d="M19.1,77.8c.2-.4.4-.6.6-.7s.5-.2.8-.2c.5,0,.8.1,1,.4s.3.7.3,1.3v3.8c0,.7,0,1.1-.3,1.4s-.6.4-1.2.4-.7-.1-1-.3c-.2-.2-.4-.6-.6-1.1-.3-.9-.7-1.6-1.2-2-.5-.4-1.3-.6-2.3-.6-1.5,0-2.7.5-3.4,1.5s-1.2,2.5-1.2,4.4.4,3.4,1.3,4.5c.8,1.1,2,1.6,3.6,1.6s.8,0,1.2-.1c.4,0,1-.2,1.6-.4v-2.3h-1.7c-.7,0-1.1-.1-1.4-.4s-.4-.6-.4-1.2.1-1,.4-1.3c.3-.2.7-.4,1.4-.4h5.3c.7,0,1.2.1,1.4.4s.4.7.4,1.2-.1.9-.4,1.2c-.3.3-.7.4-1.2.4h-.2v3.7c0,.3,0,.5-.1.7,0,.1-.2.2-.4.4-.6.3-1.4.6-2.7.9s-2.4.4-3.7.4c-2.6,0-4.6-.8-6.2-2.5s-2.4-3.9-2.4-6.6.8-4.8,2.4-6.5,3.6-2.6,6.1-2.6,1.4,0,2,.2,1.4.4,2.2.7Z"/>
        <path class="cls-1" d="M48.3,80.6v3.4h4.8v-3.4h-.2c-.5,0-.9-.1-1.2-.4-.3-.3-.4-.7-.4-1.2s.1-1,.4-1.2c.3-.3.8-.4,1.4-.4h3.8c.7,0,1.1.1,1.4.4.3.3.4.7.4,1.2s-.1.9-.4,1.2c-.3.3-.7.4-1.2.4h-.2v10.9h.2c.5,0,.9.1,1.2.4s.4.7.4,1.2-.1,1-.4,1.2-.8.4-1.4.4h-3.8c-.7,0-1.2-.1-1.4-.4-.3-.2-.4-.7-.4-1.3s.1-.9.4-1.2c.3-.3.7-.4,1.2-.4h.2v-4.3h-4.8v4.3h.2c.5,0,.9.1,1.2.4.3.3.4.7.4,1.2s-.1,1-.4,1.2c-.3.3-.8.4-1.4.4h-3.8c-.7,0-1.2-.1-1.4-.4-.3-.2-.4-.7-.4-1.3s.1-.9.4-1.2.7-.4,1.2-.4h.2v-10.9h-.2c-.5,0-.9-.1-1.2-.4s-.4-.7-.4-1.2.1-1,.4-1.2.7-.4,1.4-.4h3.8c.7,0,1.1.1,1.4.4s.4.7.4,1.2-.1.9-.4,1.2c-.3.3-.7.4-1.2.4h-.2Z"/>
        <path class="cls-1" d="M88.6,80.6v10.9h2.5c.7,0,1.1.1,1.4.4.3.2.4.7.4,1.2s-.1,1-.4,1.2c-.3.3-.8.4-1.4.4h-8.7c-.7,0-1.1-.1-1.4-.4s-.4-.7-.4-1.2.1-1,.4-1.2.8-.4,1.4-.4h2.5v-10.9h-2.5c-.7,0-1.1-.1-1.4-.4s-.4-.7-.4-1.2.1-1,.4-1.2.8-.4,1.4-.4h8.7c.7,0,1.2.1,1.5.4s.4.7.4,1.2-.1,1-.4,1.2-.8.4-1.4.4h-2.5Z"/>
      </g>
    </g>
  </g>
</svg>