<?xml version="1.0" encoding="UTF-8"?>
<svg xmlns="http://www.w3.org/2000/svg" version="1.1" viewBox="0 0 100 100">
  <!-- Generator: Adobe Illustrator 28.7.3, SVG Export Plug-In . SVG Version: 1.2.0 Build 164)  -->
  <g>
    <g id="Layer_1">
      <g>
        <path d="M76.79,10.12H23.21c-10.02,0-18.21,8.2-18.21,18.21s8.2,18.21,18.21,18.21h53.57c10.02,0,18.21-8.2,18.21-18.21s-8.2-18.21-18.21-18.21ZM23.21,41.92c-7.5,0-13.58-6.08-13.58-13.58s6.08-13.58,13.58-13.58,13.58,6.08,13.58,13.58-6.08,13.58-13.58,13.58Z"/>
        <path d="M76.79,53.45H23.21c-10.02,0-18.21,8.2-18.21,18.21s8.2,18.21,18.21,18.21h53.57c10.02,0,18.21-8.2,18.21-18.21s-8.2-18.21-18.21-18.21ZM76.79,85.22c-7.49,0-13.56-6.07-13.56-13.56s6.07-13.56,13.56-13.56,13.56,6.07,13.56,13.56-6.07,13.56-13.56,13.56Z"/>
      </g>
    </g>
  </g>
</svg>