<?xml version="1.0" encoding="UTF-8"?>
<svg xmlns="http://www.w3.org/2000/svg" version="1.1" viewBox="0 0 100 116.9">
  <!-- Generator: Adobe Illustrator 28.7.5, SVG Export Plug-In . SVG Version: 1.2.0 Build 176)  -->
  <g>
    <g id="Layer_1">
      <g>
        <path d="M30.5,44.5h-9.4c-1.4,0-2.5-1.1-2.5-2.5s1.1-2.5,2.5-2.5h9.7c.5-2.4,1.6-4.6,3.1-6.4h-12.8c-1.4,0-2.5-1.1-2.5-2.5s1.1-2.5,2.5-2.5h42.7v-9.9c0-4.8-3.9-8.7-8.7-8.7H19.1c-4.8,0-8.7,3.9-8.7,8.7v57.7c.8,4.1,4.4,7.3,8.7,7.3h11.4v-38.6ZM21.1,17.3h32c1.4,0,2.5,1.1,2.5,2.5s-1.1,2.5-2.5,2.5H21.1c-1.4,0-2.5-1.1-2.5-2.5s1.1-2.5,2.5-2.5Z"/>
        <g id="Layer_1-2" data-name="Layer_1">
          <path d="M64.4,68.8h-17.5c-1.4,0-2.5-1.1-2.5-2.5s1.1-2.5,2.5-2.5h17.5c1.4,0,2.5,1.1,2.5,2.5s-1.1,2.5-2.5,2.5ZM78.9,57.3h-32c-1.4,0-2.5-1.1-2.5-2.5s1.1-2.5,2.5-2.5h32c1.4,0,2.5,1.1,2.5,2.5s-1.1,2.5-2.5,2.5ZM78.9,46.6h-32c-1.4,0-2.5-1.1-2.5-2.5s1.1-2.5,2.5-2.5h32c1.4,0,2.5,1.1,2.5,2.5s-1.1,2.5-2.5,2.5ZM81.1,107.4c4.7,0,8.5-3.8,8.5-8.5v-56.6c0-4.7-3.8-8.5-8.5-8.5h-36.4c-4.7,0-8.5,3.8-8.5,8.5v56.6c0,4.7,3.8,8.5,8.5,8.5h36.4Z"/>
        </g>
      </g>
    </g>
  </g>
</svg>