<?xml version="1.0" encoding="UTF-8"?>
<svg id="Layer_1" xmlns="http://www.w3.org/2000/svg" version="1.1" viewBox="0 0 100 100">
  <!-- Generator: Adobe Illustrator 29.5.1, SVG Export Plug-In . SVG Version: 2.1.0 Build 141)  -->
  <path d="M74.37,17.48l-14.98-14.98c-.56-.56-1.33-.88-2.12-.88H24.84c-4.97,0-9.02,4.04-9.02,9.02v64.12c0,4.97,4.04,9.02,9.02,9.02h30.44c1.45,0,2.7-1.04,2.95-2.47.1-.57.28-1.1.52-1.56h0c.63-1.2,1.69-2.09,2.96-2.53,1.21-.42,2.03-1.56,2.03-2.84v-8.1c0-2.92,2.38-5.3,5.3-5.3h3.21c1.66,0,3-1.34,3-3V19.6c0-.8-.32-1.56-.88-2.12ZM63.28,19.6c-3.32,0-6.02-2.69-6.02-6.02V4.62l14.98,14.98h-8.97Z"/>
  <path d="M81.06,79.11h-2.5v-12.84c0-1.72-1.39-3.11-3.11-3.11h-6.42c-1.72,0-3.11,1.39-3.11,3.11v12.84h-2.5c-2.49,0-3.98,2.79-2.58,4.86l8.82,13.05c1.23,1.83,3.92,1.83,5.16,0l8.82-13.05c1.4-2.07-.08-4.86-2.58-4.86Z"/>
</svg>