<?xml version="1.0" encoding="UTF-8"?>
<svg id="Layer_1" xmlns="http://www.w3.org/2000/svg" version="1.1" viewBox="0 0 100 100">
  <!-- Generator: Adobe Illustrator 29.5.1, SVG Export Plug-In . SVG Version: 2.1.0 Build 141)  -->
  <path d="M81.06,79.11h-2.5v-12.84c0-1.72-1.39-3.11-3.11-3.11h-6.42c-1.72,0-3.11,1.39-3.11,3.11v12.84h-2.5c-2.49,0-3.98,2.79-2.58,4.86l8.82,13.05c1.23,1.83,3.92,1.83,5.16,0l8.82-13.05c1.4-2.07-.08-4.86-2.58-4.86Z"/>
  <g>
    <path d="M74.37,17.48l-14.98-14.98c-.56-.56-1.33-.88-2.12-.88H24.84c-4.97,0-9.02,4.04-9.02,9.02v64.12c0,4.97,4.04,9.02,9.02,9.02h30.44c1.45,0,2.7-1.04,2.95-2.47.1-.57.28-1.1.52-1.56h0c.63-1.2,1.69-2.09,2.96-2.53,1.21-.42,2.03-1.56,2.03-2.84v-8.1c0-2.92,2.38-5.3,5.3-5.3h3.21c1.66,0,3-1.34,3-3V19.6c0-.8-.32-1.56-.88-2.12ZM37.1,43.66c-.87.89-2.11,1.42-3.89,1.42h-1.64v5.05h-3.45v-14.88h5.09c1.78,0,3.02.53,3.89,1.42.89.91,1.42,2.13,1.42,3.49s-.53,2.58-1.42,3.49ZM50.55,47.98c-1.32,1.32-3.2,2.15-5.68,2.15h-4.5v-14.88h4.5c2.49,0,4.36.83,5.68,2.15,1.36,1.36,2.15,3.2,2.15,5.29s-.79,3.93-2.15,5.29ZM62.95,38.41h-4.77v2.72h4.68v3.06h-4.68v5.94h-3.39v-14.88h8.17v3.16ZM63.28,19.6c-3.32,0-6.02-2.69-6.02-6.02V4.62l14.98,14.98h-8.97Z"/>
    <path d="M44.58,38.51h-.77v8.37h.77c1.6,0,2.62-.43,3.39-1.2.73-.73,1.18-1.78,1.18-2.98s-.45-2.25-1.18-2.98c-.77-.77-1.8-1.2-3.39-1.2Z"/>
    <path d="M32.72,38.31h-1.14v3.71h1.14c.93,0,1.38-.22,1.72-.53.34-.32.53-.79.53-1.32s-.2-1.01-.53-1.32-.79-.53-1.72-.53Z"/>
  </g>
</svg>