<?xml version="1.0" encoding="UTF-8"?>
<svg id="Layer_1" xmlns="http://www.w3.org/2000/svg" version="1.1" viewBox="0 0 100 100">
  <!-- Generator: Adobe Illustrator 29.5.1, SVG Export Plug-In . SVG Version: 2.1.0 Build 141)  -->
  <path d="M81.06,79.11h-2.5v-12.84c0-1.72-1.39-3.11-3.11-3.11h-6.42c-1.72,0-3.11,1.39-3.11,3.11v12.84h-2.5c-2.49,0-3.98,2.79-2.58,4.86l8.82,13.05c1.23,1.83,3.92,1.83,5.16,0l8.82-13.05c1.4-2.07-.08-4.86-2.58-4.86Z"/>
  <g>
    <polygon points="27.34 37.22 31.17 37.22 29.26 32.35 27.34 37.22"/>
    <path d="M74.37,17.48l-14.98-14.98c-.56-.56-1.33-.88-2.12-.88H24.84c-4.97,0-9.02,4.04-9.02,9.02v64.12c0,4.97,4.04,9.02,9.02,9.02h30.44c1.45,0,2.7-1.04,2.95-2.47.1-.57.28-1.1.52-1.56h0c.63-1.2,1.69-2.09,2.96-2.53,1.21-.42,2.03-1.56,2.03-2.84v-8.1c0-2.92,2.38-5.3,5.3-5.3h3.21c1.66,0,3-1.34,3-3V19.6c0-.8-.32-1.56-.88-2.12ZM57.26,4.62l14.98,14.98h-8.97c-3.32,0-6.02-2.69-6.02-6.02V4.62ZM29.9,45.49h-11.17v-.67h.5c1.66,0,1.7-.24,1.7-1.01v-11.3c0-.78-.04-1.01-1.7-1.01h-.5v-.65c.73.06,2.41.06,3.25.06.88,0,2.82,0,3.6-.06v.65h-.71c-2.02,0-2.02.3-2.02,1.03v11.43c0,.71.04.86,1.05.86h1.74c3.79,0,4.09-2.67,4.31-4.87h.54l-.58,5.53ZM35.35,41.18h-4.24v-.54c.41,0,1.23,0,1.23-.43,0-.06-.04-.17-.09-.26l-.86-2.2h-4.26l-.73,1.85c-.04.15-.06.19-.06.3,0,.43.41.73,1.08.73v.54h-3.34v-.54c1.33,0,1.59-.67,1.74-1.03l3.47-8.78c.09-.26.15-.34.43-.34s.32.09.41.34l3.66,9.24c.15.43.26.58,1.27.58h.3v.54ZM72.34,45.49c-.9-.04-1.89-.06-2.8-.06-.8,0-2.37,0-3.12.06v-.67c.93-.02,1.4-.39,1.4-.65,0-.06-.06-.15-.11-.24l-3.4-5.12-3.04,4.5c-.15.24-.22.32-.22.52,0,.39.37.97,1.36.99v.67h-3.62l-.79,4.84h-12.36v-.67h.5c1.66,0,1.7-.24,1.7-1.01v-11.24c0-.78-.04-1.01-1.7-1.01h-.5v-.65h1.59c-.3-3.43-.63-4.13-3.85-4.13-.41,0-.99,0-1.23.04-.39.09-.39.39-.39.82v11.3c0,.73,0,1.03,2.26,1.03h.86v.67c-.88-.06-3.1-.06-4.09-.06s-3.16,0-4.05.06v-.67h.86c2.26,0,2.26-.3,2.26-1.03v-11.3c0-.5,0-.73-.45-.82-.22-.04-.78-.04-1.16-.04-3.25,0-3.57.71-3.88,4.18h-.52l.39-4.82h13.11l.41,4.78h9.93l.6,4.82h-.54c-.34-2.99-.9-4.18-4.2-4.18h-2.76c-1.01,0-1.05.15-1.05.86v5.15h1.92c2.09,0,2.33-.67,2.33-2.5h.54v5.68h-.54c0-1.83-.24-2.52-2.33-2.52h-1.92v5.73c0,.71.04.86,1.05.86h2.84c3.41,0,4.09-1.35,4.6-4.18h-.96v-.67c2.15,0,2.8-.99,3.1-1.42l3.51-5.19-3.94-5.96c-.41-.6-.82-.75-2-.75h-.41v-.65c.8.04,2.13.06,2.8.06.82,0,2.39,0,3.12-.06v.65c-.9.02-1.38.39-1.38.65,0,.09.11.26.15.32l2.76,4.13,2.45-3.62c.15-.24.19-.28.19-.5,0-.5-.47-.97-1.33-.99v-.65h5.12v.65c-1.92.02-2.65.71-3.1,1.4l-2.95,4.31,4.52,6.85c.45.67.9.78,2.02.78h.41v.67Z"/>
  </g>
</svg>