<?xml version="1.0" encoding="UTF-8"?>
<svg id="Layer_1" xmlns="http://www.w3.org/2000/svg" version="1.1" viewBox="0 0 448 512">
  <!-- Generator: Adobe Illustrator 29.8.4, SVG Export Plug-In . SVG Version: 2.1.1 Build 6)  -->
  <path d="M384,93.569v130.431H109.3l60.769-60.869c12.719-12.719,12.496-33.514-.669-45.95-12.68-11.978-32.774-11.208-45.107,1.126L9.3,233.3l.1.1c-12.5,12.5-12.5,32.8,0,45.3l115.369,115.469c12.719,12.719,33.514,12.496,45.95-.669,11.978-12.68,11.208-32.774-1.126-45.107l-60.393-60.393h306.8c17.673,0,32-14.327,32-32V93.569c0-17.673-14.327-32-32-32h0c-17.673,0-32,14.327-32,32Z"/>
</svg>