<?xml version="1.0" encoding="UTF-8"?>
<svg xmlns="http://www.w3.org/2000/svg" version="1.1" viewBox="0 0 576 512">
  <!-- Generator: Adobe Illustrator 28.7.3, SVG Export Plug-In . SVG Version: 1.2.0 Build 164)  -->
  <g>
    <g id="Layer_1">
      <path d="M288,32c-80.8,0-145.5,36.8-192.6,80.6C48.6,156,17.3,208,2.5,243.7c-3.3,7.9-3.3,16.7,0,24.6,14.8,35.7,46.1,87.7,92.9,131.1,47.1,43.8,111.8,80.6,192.6,80.6s145.5-36.8,192.6-80.6c46.8-43.5,78.1-95.4,93-131.1,3.3-7.9,3.3-16.7,0-24.6-14.9-35.7-46.2-87.7-93-131.1-47.1-43.8-111.8-80.6-192.6-80.6ZM144,256c0-79.5,64.5-144,144-144s144,64.5,144,144-64.5,144-144,144-144-64.5-144-144ZM352,256c-35.3,0-64-28.7-64-64s1.2-13.9,3.3-20.3c1.8-5.5-1.6-11.9-7.4-11.7-6.9.3-13.8,1.3-20.7,3.2-51.2,13.7-81.6,66.4-67.9,117.6,13.7,51.2,66.4,81.6,117.6,67.9,41.5-11.1,69.4-47.8,71.1-88.6.2-5.8-6.1-9.2-11.7-7.4-6.4,2.1-13.2,3.3-20.3,3.3h0Z"/>
    </g>
  </g>
</svg>