<?xml version="1.0" encoding="UTF-8"?>
<svg id="Layer_1" xmlns="http://www.w3.org/2000/svg" version="1.1" viewBox="0 0 13.2 17.5">
  <!-- Generator: Adobe Illustrator 29.5.0, SVG Export Plug-In . SVG Version: 2.1.0 Build 137)  -->
  <path d="M12.72,7.39L7.09,2.42c-.32-.29-.81-.28-1.13,0L.47,7.4c-.58.52-.21,1.48.57,1.48h.44v5.57c0,.47.38.85.85.85h4.31c.16,0,.28-.13.28-.28v-3.66c0-.47.38-.85.85-.85h1.1c.47,0,.85.38.85.85v3.66c0,.16.13.28.28.28h.82c.47,0,.85-.38.85-.85v-5.57h.47c.78,0,1.15-.97.56-1.49ZM4.34,12.25c-.48,0-.88-.39-.88-.88s.39-.88.88-.88.88.39.88.88-.39.88-.88.88Z"/>
</svg>