<?xml version="1.0" encoding="UTF-8"?>
<svg xmlns="http://www.w3.org/2000/svg" version="1.1" viewBox="0 0 100 100">
  <defs>
    <style>
      .cls-1 {
        fill: #231f20;
      }
    </style>
  </defs>
  <!-- Generator: Adobe Illustrator 28.7.7, SVG Export Plug-In . SVG Version: 1.2.0 Build 194)  -->
  <g>
    <g id="Layer_1">
      <g>
        <path class="cls-1" d="M19.4,6.2v8.4c0,1.3,0,2.3-.3,2.8s-.5,1.1-.9,1.6c-.5.6-1.2,1-2.2,1.3s-2,.5-3.3.5-1.8,0-2.6-.3-1.7-.4-2.4-.8c-.4-.2-.7-.4-.8-.8s-.2-.8-.2-1.5v-3c0-.8.1-1.4.4-1.8s.7-.5,1.3-.5c.9,0,1.3.6,1.4,1.9,0,.2,0,.4,0,.5.1,1.1.4,1.9.8,2.3s1.1.6,2,.6,1.9-.3,2.4-.9.7-1.7.7-3.2v-7.2h-2.5c-.7,0-1.1-.1-1.4-.4s-.4-.7-.4-1.2.1-1,.4-1.2.8-.4,1.4-.4h7.5c.7,0,1.2.1,1.4.4s.4.7.4,1.2-.1,1-.4,1.2-.8.4-1.4.4h-1.2Z"/>
        <path class="cls-1" d="M47.8,6.2v4.4l4.5-4.5c-.5,0-.9-.2-1.1-.4s-.3-.6-.3-1.1.1-1,.4-1.2c.3-.3.7-.4,1.4-.4h3.6c.7,0,1.1.1,1.4.4.3.3.4.7.4,1.2s-.1.9-.4,1.2c-.3.3-.7.4-1.2.4h-.3l-4.3,4.2c.8.6,1.5,1.4,2.2,2.3s1.4,2.4,2.3,4.4h.5c.6,0,1,.1,1.3.4s.4.7.4,1.2-.1,1-.4,1.2c-.3.3-.8.4-1.4.4h-1.8c-.8,0-1.4-.5-1.9-1.6,0-.2-.2-.4-.2-.5-.6-1.4-1.2-2.4-1.8-3.2-.5-.7-1.2-1.4-1.9-2l-1.4,1.3v2.7h.2c.5,0,.9.1,1.2.4.3.3.4.7.4,1.2s-.1,1-.4,1.2c-.3.3-.8.4-1.4.4h-3.8c-.7,0-1.2-.1-1.4-.4s-.4-.7-.4-1.3.1-.9.4-1.2.7-.4,1.2-.4h.2V6.2h-.2c-.5,0-.9-.1-1.2-.4s-.4-.7-.4-1.2.1-1,.4-1.2.7-.4,1.4-.4h3.8c.7,0,1.1.1,1.4.4s.4.7.4,1.2-.1.9-.4,1.2c-.3.3-.7.4-1.2.4h-.2Z"/>
        <path class="cls-1" d="M84.6,6.2v10.9h6.7v-2.6c0-.7.1-1.2.4-1.4s.6-.4,1.2-.4,1,.1,1.2.4.4.8.4,1.4v4.5c0,.5-.1.9-.3,1.1s-.6.3-1.2.3h-13.3c-.6,0-1.1-.1-1.4-.4s-.4-.7-.4-1.2.1-1,.4-1.2c.3-.2.7-.4,1.4-.4h1.3V6.2h-1.3c-.6,0-1.1-.1-1.4-.4s-.4-.7-.4-1.2.1-1,.4-1.2c.3-.3.7-.4,1.4-.4h6.2c.6,0,1.1.1,1.4.4s.4.7.4,1.2-.1,1-.4,1.2-.7.4-1.4.4h-1.3Z"/>
        <path class="cls-1" d="M14.2,48.8l2.8-8.3c.2-.5.4-.9.7-1.2s.7-.4,1.2-.4h2.3c.7,0,1.1.1,1.4.4s.4.7.4,1.2-.1.9-.4,1.2-.7.4-1.2.4h-.2l.4,10.9h.2c.5,0,.9.1,1.2.4s.4.7.4,1.2-.1,1-.4,1.2-.7.4-1.4.4h-3.3c-.7,0-1.1-.1-1.4-.4-.3-.2-.4-.7-.4-1.3s.1-.9.4-1.2.7-.4,1.2-.4h.2l-.2-8.9-2.1,6.6c-.2.5-.4.9-.7,1.1-.3.2-.7.3-1.2.3s-.9-.1-1.2-.3c-.3-.2-.5-.6-.7-1.1l-2.1-6.6-.2,8.9h.2c.5,0,.9.1,1.2.4s.4.7.4,1.2-.1,1-.4,1.2-.8.4-1.4.4h-3.3c-.7,0-1.1-.1-1.4-.4s-.4-.7-.4-1.2.1-.9.4-1.2.7-.4,1.2-.4h.2l.4-10.9h-.2c-.5,0-.9-.1-1.2-.4s-.4-.7-.4-1.2.1-1,.4-1.2.8-.4,1.4-.4h2.3c.5,0,.9.1,1.2.4s.6.6.8,1.2l2.9,8.3Z"/>
        <path class="cls-1" d="M53.5,50.3v-8.1h-.8c-.6,0-1.1-.1-1.4-.4-.3-.3-.4-.7-.4-1.2s.1-1,.4-1.2c.3-.3.7-.4,1.4-.4h4.2c.6,0,1.1.1,1.4.4s.4.7.4,1.2-.1.9-.4,1.2c-.3.3-.7.4-1.2.4h-.2v13.3c0,.5,0,.7-.1.9s-.3.2-.7.2h-1.5c-.5,0-.8,0-1-.1-.2,0-.4-.3-.5-.5l-6.1-10.7v8h.8c.6,0,1.1.1,1.4.4s.4.6.4,1.2-.1,1-.4,1.2c-.3.3-.7.4-1.4.4h-4.2c-.6,0-1.1-.1-1.4-.4s-.4-.7-.4-1.2.1-.9.4-1.2.7-.4,1.2-.4h.2v-10.9h-.2c-.5,0-.9-.1-1.2-.4s-.4-.7-.4-1.2.1-1,.4-1.2.7-.4,1.4-.4h2.4c.6,0,1,0,1.2.2s.4.5.7.9l5.6,10.2Z"/>
        <path class="cls-1" d="M86.2,38.5c2.4,0,4.4.9,5.9,2.6s2.3,3.9,2.3,6.6-.8,4.9-2.3,6.6-3.5,2.6-5.9,2.6-4.4-.9-5.9-2.6-2.3-3.9-2.3-6.6.8-4.9,2.3-6.6,3.5-2.6,6-2.6ZM86.2,41.9c-1.3,0-2.2.5-3,1.5-.7,1-1.1,2.4-1.1,4.2s.4,3.2,1.1,4.2,1.7,1.5,3,1.5,2.3-.5,3-1.5,1.1-2.4,1.1-4.3-.4-3.2-1.1-4.2c-.7-1-1.7-1.5-3-1.5Z"/>
        <path class="cls-1" d="M12.2,86.1v3h1.5c.6,0,1.1.1,1.4.4s.4.6.4,1.2-.1,1-.4,1.2-.7.4-1.3.4h-5.1c-.6,0-1.1-.1-1.4-.4s-.4-.7-.4-1.2.1-.9.4-1.2.6-.4,1.2-.4h.2v-10.9h-.2c-.5,0-.9-.1-1.1-.4-.3-.3-.4-.7-.4-1.2s.1-1,.4-1.2.7-.4,1.4-.4h6c2.4,0,4.2.5,5.4,1.4s1.8,2.3,1.8,4.1-.6,3.3-1.8,4.3-3,1.5-5.4,1.5h-2.5ZM12.2,78.2v4.6h2.1c1.2,0,2-.2,2.6-.6s.9-1,.9-1.8-.3-1.3-.9-1.7c-.6-.4-1.5-.6-2.6-.6h-2.1Z"/>
        <path class="cls-1" d="M49.3,92.6l-1.1,1.1c.4-.1.8-.2,1.2-.3.4,0,.8-.1,1.2-.1.8,0,1.6.1,2.4.3.9.2,1.4.3,1.6.3.3,0,.7-.1,1.2-.3.5-.2.8-.3,1-.3.4,0,.7.1.9.4.2.3.4.6.4,1s-.3,1-1,1.4c-.7.4-1.5.6-2.4.6s-1.5-.2-2.5-.5c-1-.3-1.8-.5-2.2-.5-.7,0-1.5.2-2.3.6s-1.4.6-1.6.6c-.4,0-.8-.1-1.1-.4-.3-.3-.4-.6-.4-1s0-.6.3-.9c.2-.3.5-.7,1-1.2l1.5-1.5c-1.6-.6-2.9-1.7-3.9-3.2s-1.5-3.3-1.5-5.3.8-4.8,2.3-6.5c1.5-1.7,3.5-2.5,6-2.5s4.4.8,5.9,2.5,2.3,3.9,2.3,6.5-.8,4.8-2.3,6.5-3.5,2.6-5.8,2.6-.3,0-.5,0c-.2,0-.3,0-.5,0ZM50.1,77.9c-1.3,0-2.2.5-3,1.5s-1.1,2.4-1.1,4.2.4,3.2,1.1,4.2,1.7,1.5,3,1.5,2.3-.5,3-1.5,1.1-2.4,1.1-4.3-.4-3.2-1.1-4.2c-.7-1-1.7-1.5-3-1.5Z"/>
        <path class="cls-1" d="M89.8,84.3c.3.2.5.4.7.8,0,0,0,.1.1.1l2.4,3.8h.5c.6,0,1,.1,1.3.4s.4.7.4,1.2-.1,1-.4,1.2-.8.4-1.4.4h-1.8c-.7,0-1.2-.3-1.6-.9h0s-3.6-5.6-3.6-5.6c-.1-.2-.3-.4-.5-.5s-.4-.2-.6-.2h-1.4v3.9h.2c.5,0,.9.1,1.2.4.3.3.4.7.4,1.2s-.1,1-.4,1.2c-.3.3-.7.4-1.4.4h-3.8c-.7,0-1.1-.1-1.4-.4s-.4-.7-.4-1.2.1-.9.4-1.2.7-.4,1.2-.4h.2v-10.9h-.2c-.5,0-.9-.1-1.2-.4-.3-.3-.4-.7-.4-1.2s.1-1,.4-1.2.8-.4,1.4-.4h6.8c2.1,0,3.6.4,4.7,1.2,1.1.8,1.6,2,1.6,3.6s-.3,2-.9,2.8-1.4,1.4-2.5,1.8ZM83.8,78.1v4.1h2c1.2,0,2.1-.2,2.6-.5.5-.3.7-.8.7-1.6s-.2-1.3-.7-1.6-1.2-.5-2.1-.5h-2.5Z"/>
      </g>
    </g>
  </g>
</svg>