<?xml version="1.0" encoding="UTF-8"?>
<svg xmlns="http://www.w3.org/2000/svg" version="1.1" viewBox="0 0 100 100">
  <!-- Generator: Adobe Illustrator 28.7.5, SVG Export Plug-In . SVG Version: 1.2.0 Build 176)  -->
  <g>
    <g id="Layer_2">
      <g>
        <g>
          <polygon points="20.9 28.1 28.6 28.1 24.7 17.4 20.9 28.1"/>
          <path d="M42,3.5H7.7c-2.8,0-5,2.2-5,5v33.5c0,2.8,2.2,5,5,5h34.3c2.8,0,5-2.2,5-5V8.5c0-2.8-2.2-5-5-5ZM36.1,37.9c-.5.5-1.1.8-1.8.8s-.8,0-1.1-.2c-.3-.1-.5-.3-.7-.6-.2-.3-.4-.6-.6-1.2-.2-.5-.4-1-.6-1.4l-1.2-3.3h-10.6l-1.2,3.3c-.5,1.3-.9,2.2-1.2,2.6-.3.5-.9.7-1.7.7s-1.2-.2-1.8-.7c-.5-.5-.8-1-.8-1.6s0-.7.2-1.1c.1-.4.3-.9.6-1.6l6.6-16.9c.2-.5.4-1.1.7-1.7.3-.7.5-1.2.8-1.7.3-.4.7-.8,1.2-1.1s1.1-.4,1.8-.4,1.3.1,1.8.4c.5.3.9.6,1.2,1.1s.6.9.8,1.4c.2.5.5,1.2.8,2l6.8,16.8c.5,1.3.8,2.2.8,2.8s-.3,1.2-.8,1.7Z"/>
        </g>
        <g>
          <path d="M79.2,27.6c-.9-.6-2.3-.9-4.1-.9h-5.5v7.6h5.6c3.6,0,5.3-1.3,5.3-3.8s-.5-2.3-1.4-2.9Z"/>
          <path d="M92.3,3.5h-34.3c-2.8,0-5,2.2-5,5v33.5c0,2.8,2.2,5,5,5h34.3c2.8,0,5-2.2,5-5V8.5c0-2.8-2.2-5-5-5ZM84.8,34.8c-.7,1.2-1.7,2-3,2.6-.8.3-1.7.6-2.7.7-1,.1-2.2.2-3.6.2h-7.9c-1.1,0-2-.3-2.5-.8s-.7-1.3-.7-2.5V15.5c0-1.1.2-2,.8-2.5.5-.5,1.3-.8,2.4-.8h8.4c1.2,0,2.3,0,3.2.2.9.2,1.7.4,2.4.9.6.4,1.2.8,1.6,1.4.5.6.8,1.2,1.1,1.9s.4,1.4.4,2.2c0,2.6-1.3,4.5-3.9,5.7,3.4,1.1,5.1,3.2,5.1,6.3s-.4,2.8-1.1,3.9Z"/>
          <path d="M77.5,22.6c.7-.2,1.3-.7,1.6-1.4.3-.5.4-1.1.4-1.7,0-1.3-.5-2.2-1.4-2.6-.9-.4-2.4-.6-4.3-.6h-4.3v6.7h4.8c1.3,0,2.3-.1,3-.4Z"/>
        </g>
        <path d="M42.6,53H8.2c-2.8,0-5,2.2-5,5v33.5c0,2.8,2.2,5,5,5h34.3c2.8,0,5-2.2,5-5v-33.5c0-2.8-2.2-5-5-5ZM36.4,82.2c-.4,1-1,1.9-1.9,2.8-.9.9-2,1.7-3.3,2.3s-2.9.9-4.7.9-2.6-.1-3.7-.4c-1.1-.3-2.1-.7-3.1-1.2-.9-.5-1.8-1.3-2.5-2.2-.7-.8-1.3-1.7-1.8-2.7-.5-1-.8-2.1-1.1-3.2-.2-1.1-.4-2.4-.4-3.6,0-2.1.3-4,.9-5.6s1.5-3.1,2.6-4.2c1.1-1.2,2.5-2.1,4-2.7,1.5-.6,3.1-.9,4.9-.9s4,.4,5.6,1.3c1.6.8,2.9,1.9,3.8,3.1.9,1.2,1.3,2.4,1.3,3.5s-.2,1.1-.6,1.6c-.4.5-.9.7-1.5.7s-1.2-.2-1.5-.5c-.3-.3-.7-.9-1.1-1.6-.7-1.3-1.5-2.2-2.4-2.9-.9-.6-2.1-1-3.4-1-2.2,0-3.9.8-5.2,2.5s-1.9,4-1.9,7,.3,3.7.8,5,1.4,2.3,2.4,3,2.3,1,3.6,1,2.8-.4,3.8-1.1c1-.7,1.8-1.9,2.4-3.3.2-.7.5-1.2.8-1.7s.9-.6,1.6-.6,1.2.2,1.6.7c.4.4.7,1,.7,1.6s-.2,1.7-.6,2.7Z"/>
        <g>
          <path d="M76.9,66.4c-1.1-.3-2.5-.5-4.1-.5h-3.5v17.6h4c.9,0,1.6,0,2.1,0,.5,0,1-.2,1.5-.4s1-.5,1.4-.8c1.8-1.5,2.6-4,2.6-7.7s-.4-4.5-1.2-5.8c-.8-1.3-1.7-2.1-2.9-2.4Z"/>
          <path d="M92.3,53h-34.3c-2.8,0-5,2.2-5,5v33.5c0,2.8,2.2,5,5,5h34.3c2.8,0,5-2.2,5-5v-33.5c0-2.8-2.2-5-5-5ZM85.8,78.9c-.3,1.3-.7,2.4-1.3,3.5-.6,1-1.3,2-2.2,2.8-.7.6-1.5,1.1-2.3,1.5-.8.4-1.7.6-2.7.8-1,.2-2,.2-3.2.2h-6.9c-1,0-1.7-.1-2.2-.4-.5-.3-.8-.7-.9-1.2s-.2-1.2-.2-2v-19c0-1.1.3-2,.8-2.5.5-.5,1.3-.8,2.5-.8h6.9c1.8,0,3.3.2,4.6.5,1.3.3,2.4,1,3.5,1.9,2.7,2.3,4.1,5.8,4.1,10.6s-.1,3-.4,4.3Z"/>
        </g>
      </g>
    </g>
  </g>
</svg>