<?xml version="1.0" encoding="UTF-8"?>
<svg id="Layer_1" xmlns="http://www.w3.org/2000/svg" version="1.1" viewBox="0 0 15 15">
  <!-- Generator: Adobe Illustrator 29.5.0, SVG Export Plug-In . SVG Version: 2.1.0 Build 137)  -->
  <path d="M11.22,5.51c.32.6.52,1.27.52,1.99,0,2.34-1.9,4.24-4.24,4.24s-4.24-1.9-4.24-4.24,1.9-4.24,4.24-4.24c.51,0,.99.11,1.45.27.22-.28.44-.55.67-.81-.65-.29-1.37-.46-2.12-.46-2.89,0-5.24,2.35-5.24,5.24s2.35,5.24,5.24,5.24,5.24-2.35,5.24-5.24c0-1.04-.31-2.01-.84-2.83-.24.27-.46.55-.68.83Z"/>
  <path d="M7.69,9.73c-.2,0-.38-.12-.46-.3-.65-1.5-1.52-2.11-2.28-2.5-.25-.13-.34-.43-.21-.67.13-.24.43-.34.67-.21.66.34,1.45.86,2.14,1.88.97-2.69,3.11-5,5.15-6.96.2-.19.52-.18.71.02.19.2.18.52-.02.71-2.23,2.13-4.59,4.71-5.21,7.65-.05.21-.22.37-.44.39-.02,0-.03,0-.05,0Z"/>
</svg>