<?xml version="1.0" encoding="UTF-8"?>
<svg id="Layer_1" xmlns="http://www.w3.org/2000/svg" version="1.1" viewBox="0 0 510.24 510.24">
  <!-- Generator: Adobe Illustrator 29.5.0, SVG Export Plug-In . SVG Version: 2.1.0 Build 137)  -->
  <path d="M332.6,71.74c-13.73-5.81-29.58.61-35.39,14.35-5.81,13.73.62,29.58,14.35,35.39,53.81,22.76,88.59,75.22,88.59,133.64,0,79.97-65.06,145.03-145.03,145.03s-145.03-65.06-145.03-145.03c0-39.94,16.37-77.23,43.98-104.06l-7.12,71.93c-1.47,14.84,9.37,28.06,24.21,29.53.91.09,1.8.13,2.69.13,13.71,0,25.46-10.41,26.84-24.34l12.71-128.33s0,0,0,0c0-.01,0-.02,0-.03.17-1.75.18-3.53,0-5.3,0-.05,0-.1-.01-.15-.03-.29-.07-.59-.11-.88-.02-.16-.04-.33-.07-.49-.03-.16-.06-.32-.09-.48-.05-.29-.1-.58-.16-.87-.01-.05-.02-.1-.04-.15-.38-1.75-.92-3.43-1.62-5.04,0-.01,0-.02-.01-.03-.01-.03-.03-.06-.04-.09-.16-.36-.32-.71-.49-1.06-.06-.12-.12-.23-.18-.34-.13-.26-.27-.52-.41-.78-.1-.19-.21-.37-.32-.55-.1-.18-.21-.35-.31-.52-.15-.24-.3-.48-.46-.72-.07-.1-.14-.21-.21-.31-.19-.28-.39-.56-.59-.84-.04-.06-.08-.11-.12-.17-.23-.31-.46-.61-.7-.9-.02-.03-.05-.06-.07-.08-.26-.31-.52-.61-.78-.91-.02-.02-.04-.04-.06-.06-.27-.3-.54-.59-.82-.87-.03-.03-.06-.06-.09-.09-.27-.27-.54-.53-.81-.78-.06-.06-.12-.11-.18-.16-.25-.22-.49-.44-.75-.65-.11-.09-.21-.18-.32-.26-.21-.17-.42-.34-.64-.5-.16-.13-.33-.25-.5-.37-.16-.12-.32-.24-.49-.35-.23-.16-.46-.31-.69-.46-.11-.07-.22-.14-.33-.21-.29-.18-.57-.35-.87-.52-.07-.04-.13-.08-.2-.11-.33-.19-.67-.37-1.01-.54-.03-.02-.06-.03-.1-.05-.36-.18-.73-.36-1.09-.52-.02,0-.04-.02-.06-.03-.37-.17-.74-.32-1.12-.47-.03-.01-.06-.02-.09-.04-.36-.14-.72-.27-1.09-.4-.06-.02-.13-.04-.19-.06-.33-.11-.66-.21-.99-.31-.12-.03-.24-.07-.36-.1-.28-.08-.55-.15-.83-.22-.19-.05-.39-.09-.59-.13-.21-.05-.42-.09-.63-.13-.29-.06-.58-.11-.87-.15-.13-.02-.25-.04-.38-.06-.39-.06-.77-.1-1.16-.15-.03,0-.07,0-.1-.01,0,0,0,0,0,0h-.1c-.11-.02-.21-.03-.32-.04l-127.92-12.67c-14.84-1.47-28.06,9.37-29.53,24.21-1.47,14.84,9.37,28.06,24.21,29.53l56.22,5.57c-35.04,36.41-55.66,85.58-55.66,138.08,0,109.75,89.28,199.03,199.03,199.03s199.03-89.28,199.03-199.03c0-80.17-47.71-152.15-121.55-183.38Z"/>
</svg>