<?xml version="1.0" encoding="utf-8"?>
<!-- Generator: Adobe Illustrator 27.9.6, SVG Export Plug-In . SVG Version: 9.03 Build 54986)  -->
<svg version="1.1" id="Layer_1" xmlns="http://www.w3.org/2000/svg" xmlns:xlink="http://www.w3.org/1999/xlink" x="0px" y="0px"
	 viewBox="0 0 100 100" style="enable-background:new 0 0 100 100;" xml:space="preserve">
<g>
</g>
<path d="M55.4,2.5v15.3c0,2.8,2.2,5,5,5s5-2.2,5-5V2.5H55.4z"/>
<path d="M26,73c0,1.9,1.6,3.5,3.5,3.5h40.9c1.9,0,3.5-1.6,3.5-3.5s-1.6-3.5-3.5-3.5H29.5C27.6,69.5,26,71.1,26,73z"/>
<path d="M26,87c0,1.9,1.6,3.5,3.5,3.5h40.9c1.9,0,3.5-1.6,3.5-3.5s-1.6-3.5-3.5-3.5H29.5C27.6,83.5,26,85.1,26,87z"/>
<path d="M77.5,2.5h-7.1v15.3c0,5.5-4.5,10-10,10H29c-5.5,0-10-4.5-10-10V2.5h-6.5c-5.5,0-10,4.5-10,10v75c0,5.5,4.5,10,10,10H19V73
	c0-5.8,4.7-10.5,10.5-10.5h40.9C76.2,62.5,81,67.2,81,73v24.5h6.5c5.5,0,10-4.5,10-10v-65C97.5,11.5,88.5,2.5,77.5,2.5z"/>
</svg>
