<?xml version="1.0" encoding="utf-8"?>
<!-- Generator: Adobe Illustrator 27.9.6, SVG Export Plug-In . SVG Version: 9.03 Build 54986)  -->
<svg version="1.1" id="Layer_1" xmlns="http://www.w3.org/2000/svg" xmlns:xlink="http://www.w3.org/1999/xlink" x="0px" y="0px"
	 viewBox="0 0 74.3 74.3" style="enable-background:new 0 0 74.3 74.3;" xml:space="preserve">
<g>
	<circle style="opacity:0.2;fill-rule:evenodd;clip-rule:evenodd;" cx="29.7" cy="29.7" r="23.3"/>
	<path d="M71.2,64.4L52.6,45.9c3.2-4.6,5.1-10.1,5.1-16.1c0-15.4-12.6-28-28-28c-15.4,0-28,12.6-28,28c0,15.4,12.6,28,28,28
		c6,0,11.6-1.9,16.1-5.1l18.6,18.6c0.9,0.9,2.1,1.4,3.4,1.4s2.4-0.5,3.4-1.4C73,69.3,73,66.3,71.2,64.4z M11.2,29.7
		c0-10.2,8.3-18.5,18.5-18.5s18.5,8.3,18.5,18.5c0,10.2-8.3,18.5-18.5,18.5S11.2,39.9,11.2,29.7z"/>
</g>
</svg>
