<?xml version="1.0" encoding="UTF-8"?>
<svg id="Layer_1" xmlns="http://www.w3.org/2000/svg" version="1.1" viewBox="0 0 300 300">
  <!-- Generator: Adobe Illustrator 29.8.4, SVG Export Plug-In . SVG Version: 2.1.1 Build 6)  -->
  <g>
    <path d="M238.75,109.61c-.69,6.57-1.46,13.12-2.79,19.65-.57,3.26-1.42,6.51-2.18,9.74-.43,1.61-.92,3.22-1.38,4.83-.43,1.61-.99,3.2-1.54,4.79-4.26,12.68-10.88,24.93-20.15,34.77-4.61,4.91-9.84,9.2-15.47,12.66-5.62,3.48-11.6,6.19-17.68,8.28-12.22,4.15-24.78,5.76-37.22,6.74,12.15-2.87,24.2-6.4,34.97-12.03,10.75-5.61,20.05-13.34,26.49-22.91,6.51-9.52,10.43-20.51,12.39-31.92.26-1.42.53-2.84.68-4.29.18-1.45.38-2.88.54-4.32.22-2.92.53-5.8.58-8.75.29-5.84.06-11.76-.22-17.64l23,.42Z"/>
    <polygon points="203.08 127.05 227.11 117.36 250.76 127.92 227.96 70.96 203.08 127.05"/>
  </g>
  <g>
    <path d="M41.51,192.41s0-.08,0-.12c0-.2-.18-.34-.37-.3-.16.04-.32.05-.49.04h0c-1.03-.04-1.83-.88-1.79-1.87,0-.15.03-.3.08-.44.06-.19-.07-.39-.27-.4,0,0,0,0,0,0-1.75-.07-3.21,1.39-3.09,3.19.09,1.37,1.15,2.52,2.5,2.72,1.78.27,3.36-1.06,3.43-2.81Z"/>
    <path d="M100.46,189.43c-1.02-.04-1.81-.87-1.77-1.85,0-.15.03-.3.08-.44.06-.19-.07-.39-.26-.4,0,0,0,0,0,0-1.73-.07-3.18,1.37-3.06,3.15.09,1.35,1.14,2.49,2.48,2.69,1.77.27,3.32-1.05,3.4-2.79,0-.04,0-.08,0-.12,0-.2-.18-.34-.37-.3-.16.03-.32.05-.49.04h0Z"/>
    <path d="M128.67,170.4c-8.55-33.89-49.92-31.06-77.77-28.72C-7.59,145.33-1.41,217.85,13.94,257.84c17.33,42.08,70.93,55.46,99.35,16.56,19.13-27.1,23.41-72.23,15.38-103.99ZM105.18,189.96c-.11,2.65-1.73,4.86-3.98,5.89-1.94.08-3.92.03-5.9-.11-2.3-1.17-3.84-3.6-3.72-6.35.08-1.85.89-3.49,2.14-4.67,2.72-.64,5.58-.89,8.38-.75,1.94,1.27,3.19,3.5,3.09,5.98ZM88.88,186.33c-.32.92-.52,1.91-.56,2.94-.09,2.11.48,4.15,1.62,5.89-3.46-.51-6.76-1.21-9.62-1.88,2-3.06,5.04-5.38,8.57-6.95ZM58.96,193.92c-3.75,1.2-8.22,2.57-12.89,3.49.93-1.36,1.5-2.99,1.57-4.75.08-1.92-.45-3.73-1.41-5.25,4.98,1.06,9.57,3.25,12.73,6.51ZM32.36,192.02c.09-2.23,1.37-4.12,3.19-5.13,1.89-.22,3.82-.27,5.74-.15,2.12,1.05,3.54,3.28,3.44,5.79-.12,2.86-2.16,5.17-4.83,5.77-.63.05-1.25.09-1.87.12-3.29-.28-5.81-3.08-5.67-6.4ZM21.15,193.51c2.41-2.66,5.71-4.49,9.39-5.59-.65,1.19-1.04,2.54-1.1,3.98-.1,2.29.66,4.47,2.12,6.22-3.86-.59-7.44-1.99-10.41-4.61ZM44.55,253.8c3.27-1.48,8.29-1.99,12.42-3.43,4.72-2.05,9.7-1.14,14.8-.49,4.95-1.09,9.56-2.51,14.3-.74,4.05.96,8.91,1.24,12.12,2.31-15.48,9.21-37.22,9.73-53.65,2.35ZM106.8,195.17c.95-1.47,1.55-3.2,1.63-5.07.08-1.98-.42-3.84-1.35-5.44,3.79.88,7.25,2.55,9.85,5.06-2.62,2.92-6.16,4.6-10.13,5.45Z"/>
  </g>
  <g>
    <g>
      <path d="M156.01,31.37c-.84-.62-1.81-1.28-2.9-2.03l-3.02-2.1c-4.22-2.96-8.58-6.02-15.2-8.88-7.81-3.37-14.19-5.33-22.02-6.74-1.26-.23-2.41-.41-3.52-.58-.02,0-.05,0-.07-.01,0,0,0,0,0,0-6.44-.95-10.77-.9-17.32-.42-2.16.16-4.24.41-6.31.7-.02,0-.04,0-.06,0-1.24.18-2.46.38-3.67.61-.52.1-1.06.22-1.58.33-1.06.22-2.13.46-3.2.72-.48.12-.97.24-1.46.37-1.49.39-3,.82-4.56,1.31-.04.01-.07.02-.11.03-3.34,1.05-5.65,2.13-7.61,3.24-1.18.67-2.23,1.35-3.3,2.05-.66.43-1.34.87-2.06,1.31-3.03,1.86-4.3,3.05-5.76,4.44-.43.4-.88.83-1.41,1.3-.66.59-1.45,1.09-2.22,1.58-1.83,1.17-4.11,2.61-3.51,5.31l.12.53,8.49,7.26c3.34,2.28,4.75,3.08,9.04,4.74l1.96.78c3.24,1.31,6.04,2.44,11.61,3.27,1.87.28,3.65.49,5.39.67.08,0,.16.02.24.02,3.2.32,6.28.49,9.49.49,1.76,0,3.57-.05,5.47-.14,5.35-.25,9.36-.83,13.81-1.63,0,0,0,0,0,0,.02,0,.04,0,.05,0,1.44-.26,2.92-.55,4.52-.85h.02c.05-.01.09-.02.14-.03l2.35-.45c4.55-.86,8.28-1.83,11.88-2.77,2.56-.67,5.07-1.32,7.78-1.91,3.08-.66,5.53-1.05,7.68-1.39,2.39-.38,4.46-.7,6.67-1.3.96-.26,1.86-.46,2.67-.63,2.78-.62,5.65-1.25,5.49-4.07-.11-1.88-1.49-3.27-4-5.12ZM96.8,48.29c-3.16.15-6.05.15-8.92.04-6.28-3.54-10.18-10.16-10.18-17.37,0-6.62,3.27-12.75,8.75-16.48,1.86-.26,3.75-.47,5.73-.61,6.15-.46,10.28-.51,16.23.34,5.76,3.7,9.2,9.94,9.2,16.76,0,6.26-2.87,12-7.86,15.82-4.16.74-7.97,1.28-12.96,1.51Z"/>
      <path d="M107.39,30.54c-.03-.64-.64-1.09-1.26-.93-.51.14-1.05.21-1.61.21h0c-3.37,0-6.1-2.63-6.1-5.87,0-.5.07-.99.19-1.45.17-.63-.27-1.28-.93-1.28h-.01c-5.74,0-10.31,4.97-9.67,10.84.49,4.46,4.1,8.07,8.56,8.56,5.87.65,10.84-3.93,10.84-9.67,0-.14,0-.27,0-.41Z"/>
    </g>
    <g>
      <path d="M297.72,33.81c-.69-3.55-5.31-6.79-9.78-9.92-.77-.54-1.53-1.08-2.26-1.6-4.66-3.37-6.78-4.91-13.24-7.24-6.26-2.25-11.73-3.82-19.65-4.63-8.05-.8-13.59-.99-21.86.38-2.29.38-4.38.82-6.36,1.31-.16.04-.31.09-.47.13-.75.19-1.49.39-2.21.6-.34.1-.67.21-1,.31-.52.16-1.05.32-1.55.49-.52.17-1.02.36-1.53.54-.31.11-.63.22-.94.33-.67.25-1.33.51-1.98.78-.14.06-.29.11-.43.17-.72.3-1.43.6-2.14.92-.08.04-.17.07-.26.11-.8.35-1.59.72-2.39,1.09-6.31,2.95-10.21,6.14-13.99,9.23l-1.69,1.37c-4.72,3.81-7.57,6.1-7.6,8.89,0,0,0,0,0,0,0,0,0,0,0,0l-.02,1.11,8.26,3.37c2.47.76,4.59,1.26,7.28,1.89,1.54.36,3.3.78,5.47,1.32,1.93.49,3.75.99,5.58,1.49.94.26,1.89.52,2.87.79,2.92.79,6.08,1.58,9.91,2.3,5.62,1.06,10.35,1.94,15.73,2.45,1.69.16,3.44.28,5.31.36,1.38.06,2.66.08,3.9.08.02,0,.04,0,.06,0,.05,0,.09,0,.14,0,2.82,0,5.37-.12,7.82-.34.06,0,.11,0,.17-.01,1.16-.1,2.31-.22,3.46-.36.16-.02.33-.04.49-.06,1.1-.13,2.2-.27,3.33-.42,6.53-.87,9.43-1.82,13.62-3.3,4.48-1.58,6.12-2.51,9.42-4.86.81-.58,1.75-1.11,2.69-1.64,2.93-1.66,6.57-3.72,5.85-7.42ZM246.9,48.89c-6.17-.26-10.95-1-16.59-2.03-5.63-4.15-8.73-10.98-8.07-17.93.58-6.17,3.93-11.58,9.17-14.92.01,0,.02,0,.04,0,7.81-1.29,13.17-1.13,20.73-.38,6.68,3.92,10.52,11.37,9.79,19.07-.67,7.11-5.13,13.31-11.63,16.27-1.1,0-2.23-.03-3.44-.08Z"/>
      <path d="M251.59,31.31c.03-.63-.52-1.12-1.14-1.02-.51.09-1.04.11-1.58.06h0c-3.27-.31-5.68-3.12-5.39-6.27.05-.49.16-.95.32-1.39.22-.6-.15-1.27-.78-1.33h-.01c-5.57-.53-10.48,3.87-10.39,9.64.07,4.37,3.24,8.22,7.53,9.1,5.64,1.17,10.89-2.82,11.42-8.39.01-.13.02-.27.03-.4Z"/>
    </g>
  </g>
</svg>