<?xml version="1.0" encoding="UTF-8"?>
<svg id="Layer_1" xmlns="http://www.w3.org/2000/svg" version="1.1" viewBox="0 0 300 300">
  <!-- Generator: Adobe Illustrator 29.8.4, SVG Export Plug-In . SVG Version: 2.1.1 Build 6)  -->
  <g>
    <path d="M93.56,136.67c-9.39,4.22-18.18,9.9-25.87,17.09-7.7,7.17-14.27,15.83-19.53,25.44-5.28,9.61-9.28,20.12-12.19,31.03-2.91,10.92-4.73,22.23-5.71,33.68-.94-11.45-1.04-23.05.05-34.68,1.09-11.62,3.37-23.3,7.32-34.66,3.94-11.35,9.61-22.37,17.18-32.28,7.54-9.92,16.95-18.62,27.48-25.67l11.27,20.05Z"/>
    <polygon points="60.47 114.72 80.99 130.54 83.84 156.3 121.44 107.81 60.47 114.72"/>
  </g>
  <g>
    <path d="M180.55,75.78c0-.05,0-.11,0-.16,0-.25-.23-.43-.47-.38-.2.04-.41.06-.62.06h0c-1.3-.05-2.32-1.12-2.26-2.37,0-.19.04-.38.1-.56.08-.24-.08-.5-.34-.51,0,0,0,0,0,0-2.22-.09-4.07,1.75-3.91,4.03.12,1.73,1.46,3.19,3.17,3.45,2.26.35,4.25-1.34,4.35-3.56Z"/>
    <path d="M255.19,72c-1.29-.05-2.29-1.1-2.24-2.35,0-.19.04-.38.1-.55.08-.24-.08-.49-.33-.5,0,0,0,0,0,0-2.2-.09-4.03,1.74-3.87,3.99.12,1.71,1.44,3.15,3.14,3.41,2.24.34,4.21-1.33,4.3-3.53,0-.05,0-.1,0-.16,0-.25-.23-.43-.47-.37-.2.04-.41.06-.62.05h0Z"/>
    <path d="M290.92,47.91c-10.82-42.91-63.22-39.33-98.49-36.37-74.07,4.62-66.24,96.45-46.81,147.09,21.94,53.28,89.82,70.23,125.81,20.97,24.22-34.32,29.64-91.47,19.48-131.69ZM261.17,72.69c-.14,3.35-2.19,6.16-5.04,7.46-2.46.11-4.97.04-7.47-.14-2.92-1.48-4.86-4.56-4.72-8.04.1-2.34,1.12-4.42,2.71-5.91,3.45-.8,7.07-1.12,10.62-.95,2.46,1.61,4.04,4.43,3.91,7.58ZM240.54,68.08c-.41,1.17-.66,2.42-.71,3.72-.11,2.68.61,5.25,2.05,7.45-4.38-.65-8.56-1.53-12.19-2.38,2.54-3.87,6.38-6.82,10.86-8.8ZM202.65,77.7c-4.75,1.52-10.42,3.26-16.32,4.42,1.17-1.72,1.9-3.78,1.99-6.02.1-2.44-.57-4.73-1.79-6.65,6.31,1.35,12.12,4.12,16.12,8.24ZM168.96,75.29c.12-2.83,1.73-5.21,4.04-6.5,2.39-.28,4.83-.34,7.27-.19,2.69,1.33,4.49,4.15,4.35,7.34-.15,3.62-2.74,6.55-6.11,7.3-.79.07-1.58.12-2.37.15-4.16-.35-7.35-3.9-7.18-8.11ZM154.76,77.18c3.06-3.37,7.23-5.69,11.89-7.08-.82,1.51-1.32,3.21-1.4,5.04-.12,2.9.84,5.67,2.69,7.87-4.89-.75-9.43-2.52-13.18-5.83ZM184.39,153.53c4.14-1.87,10.5-2.52,15.73-4.34,5.98-2.59,12.29-1.45,18.75-.62,6.27-1.38,12.11-3.17,18.11-.94,5.13,1.22,11.29,1.57,15.35,2.92-19.61,11.67-47.13,12.32-67.95,2.98ZM263.23,79.28c1.21-1.86,1.96-4.05,2.06-6.43.1-2.5-.53-4.86-1.7-6.88,4.8,1.11,9.19,3.23,12.48,6.41-3.31,3.7-7.8,5.82-12.83,6.9Z"/>
  </g>
  <g>
    <g>
      <path d="M78.3,276.03c-.59-.43-1.28-.9-2.05-1.43l-2.13-1.48c-2.98-2.09-6.06-4.25-10.72-6.27-5.51-2.38-10.01-3.76-15.54-4.76-.89-.16-1.7-.29-2.49-.41-.02,0-.03,0-.05,0,0,0,0,0,0,0-4.55-.67-7.6-.63-12.22-.29-1.52.11-2.99.29-4.45.5-.01,0-.03,0-.04,0-.87.13-1.73.27-2.59.43-.37.07-.74.16-1.11.23-.75.15-1.5.32-2.26.51-.34.08-.69.17-1.03.26-1.05.28-2.12.58-3.22.92-.03,0-.05.01-.08.02-2.36.74-3.99,1.5-5.37,2.29-.83.47-1.57.95-2.33,1.44-.47.3-.95.61-1.46.93-2.14,1.31-3.03,2.16-4.06,3.13-.3.28-.62.58-.99.92-.46.41-1.03.77-1.57,1.12-1.29.82-2.9,1.84-2.48,3.74l.08.37,5.99,5.12c2.35,1.61,3.35,2.17,6.38,3.35l1.38.55c2.28.93,4.26,1.72,8.19,2.31,1.32.2,2.57.35,3.81.47.06,0,.12.01.17.02,2.26.22,4.43.35,6.7.35,1.24,0,2.52-.03,3.86-.1,3.78-.18,6.6-.58,9.74-1.15,0,0,0,0,0,0,.01,0,.02,0,.04,0,1.02-.18,2.06-.38,3.19-.6h.02s.07-.02.1-.02l1.66-.32c3.21-.61,5.84-1.29,8.38-1.95,1.81-.47,3.58-.93,5.49-1.35,2.18-.47,3.9-.74,5.42-.98,1.69-.27,3.15-.5,4.71-.91.68-.18,1.31-.32,1.88-.45,1.96-.43,3.99-.88,3.87-2.87-.08-1.32-1.05-2.31-2.83-3.61ZM36.52,287.96c-2.23.11-4.27.11-6.29.03-4.43-2.5-7.18-7.17-7.18-12.26,0-4.67,2.31-9,6.18-11.63,1.31-.18,2.65-.33,4.04-.43,4.34-.32,7.26-.36,11.45.24,4.06,2.61,6.49,7.01,6.49,11.82,0,4.42-2.02,8.47-5.55,11.16-2.94.52-5.63.9-9.14,1.07Z"/>
      <path d="M43.99,275.44c-.02-.45-.45-.77-.89-.65-.36.1-.74.15-1.13.15h0c-2.38,0-4.3-1.86-4.3-4.14,0-.35.05-.7.13-1.02.12-.45-.19-.9-.65-.9h-.01c-4.05,0-7.28,3.5-6.82,7.65.35,3.14,2.9,5.69,6.04,6.04,4.14.46,7.65-2.77,7.65-6.82,0-.1,0-.19,0-.29Z"/>
    </g>
    <g>
      <path d="M178.29,277.75c-.49-2.51-3.75-4.79-6.9-7-.54-.38-1.08-.76-1.6-1.13-3.28-2.38-4.78-3.46-9.34-5.11-4.41-1.59-8.28-2.69-13.86-3.27-5.68-.57-9.59-.7-15.43.27-1.61.27-3.09.58-4.48.93-.11.03-.22.06-.33.09-.53.14-1.05.27-1.56.42-.24.07-.47.15-.71.22-.37.11-.74.22-1.09.34-.37.12-.72.25-1.08.38-.22.08-.45.15-.66.24-.47.18-.94.36-1.4.55-.1.04-.2.08-.3.12-.51.21-1.01.42-1.51.65-.06.03-.12.05-.18.08-.56.25-1.12.51-1.69.77-4.45,2.08-7.21,4.33-9.87,6.51l-1.19.97c-3.33,2.69-5.34,4.31-5.37,6.28,0,0,0,0,0,0,0,0,0,0,0,0v.78s5.82,2.38,5.82,2.38c1.74.54,3.24.89,5.14,1.34,1.09.26,2.33.55,3.86.93,1.36.34,2.65.7,3.93,1.05.66.18,1.33.37,2.02.56,2.06.56,4.29,1.11,6.99,1.62,3.97.75,7.3,1.37,11.1,1.73,1.19.11,2.43.2,3.75.25.97.04,1.88.06,2.75.06.01,0,.03,0,.04,0,.03,0,.06,0,.1,0,1.99,0,3.79-.09,5.52-.24.04,0,.08,0,.12,0,.82-.07,1.63-.16,2.44-.25.12-.01.23-.03.35-.04.77-.09,1.55-.19,2.35-.3,4.61-.62,6.66-1.29,9.61-2.33,3.16-1.12,4.32-1.77,6.64-3.43.57-.41,1.24-.78,1.9-1.16,2.07-1.17,4.64-2.62,4.13-5.23ZM142.43,288.39c-4.36-.19-7.73-.7-11.7-1.43-3.97-2.93-6.16-7.75-5.69-12.65.41-4.35,2.77-8.17,6.47-10.53,0,0,.02,0,.03,0,5.51-.91,9.29-.8,14.63-.27,4.71,2.77,7.42,8.02,6.91,13.46-.48,5.02-3.62,9.39-8.21,11.48-.78,0-1.57-.02-2.43-.06Z"/>
      <path d="M145.74,275.99c.02-.44-.37-.79-.81-.72-.36.06-.73.08-1.11.04h0c-2.31-.22-4.01-2.2-3.8-4.42.03-.34.11-.67.23-.98.16-.42-.1-.89-.55-.94h0c-3.93-.37-7.39,2.73-7.33,6.8.05,3.09,2.29,5.8,5.31,6.42,3.98.83,7.68-1.99,8.06-5.92,0-.09.02-.19.02-.28Z"/>
    </g>
  </g>
</svg>