<?xml version="1.0" encoding="UTF-8"?>
<svg xmlns="http://www.w3.org/2000/svg" version="1.1" viewBox="0 0 100 100">
  <!-- Generator: Adobe Illustrator 28.7.3, SVG Export Plug-In . SVG Version: 1.2.0 Build 164)  -->
  <g>
    <g id="Layer_1">
      <g id="Layer_1-2" data-name="Layer_1">
        <g>
          <path d="M42.8,24.7c0-2.4-2-4.4-4.4-4.4h0c-1.2,0-2.3.5-3.1,1.3l-12.8,12.9c-.6.6-1.4,1.1-2.3,1.2l-11.5,2.1c-2.1.4-3.6,2.2-3.6,4.3v15.7c0,2.1,1.5,4,3.6,4.3l11.5,2.1c.9.2,1.7.6,2.3,1.2l12.8,12.9c.8.8,2,1.3,3.1,1.3h0c2.4,0,4.4-2,4.4-4.4V24.7Z"/>
          <path d="M54.4,64.7c-.8,0-1.6-.3-2.3-.9-1.3-1.3-1.3-3.3,0-4.5,2.5-2.5,3.8-5.8,3.8-9.3s-1.4-6.8-3.8-9.3c-1.3-1.3-1.3-3.3,0-4.5,1.3-1.3,3.3-1.3,4.5,0,3.7,3.7,5.7,8.6,5.7,13.8s-2,10.1-5.7,13.8c-.6.6-1.4.9-2.3.9h0Z"/>
          <path d="M65.9,76.3c-.8,0-1.6-.3-2.3-.9-1.3-1.3-1.3-3.3,0-4.5,5.6-5.6,8.6-12.9,8.6-20.8s-3.1-15.3-8.6-20.8c-1.3-1.3-1.3-3.3,0-4.5,1.3-1.3,3.3-1.3,4.5,0,6.8,6.8,10.5,15.8,10.5,25.3s-3.7,18.6-10.5,25.3-1.4.9-2.3.9h0Z"/>
          <path d="M77.5,87.8c-.8,0-1.6-.3-2.3-.9-1.3-1.3-1.3-3.3,0-4.5,8.6-8.6,13.4-20.1,13.4-32.3s-4.8-23.7-13.4-32.3c-1.3-1.3-1.3-3.3,0-4.5s3.3-1.3,4.5,0c9.9,9.9,15.3,22.9,15.3,36.9s-5.4,27-15.3,36.9c-.6.6-1.4.9-2.3.9h0Z"/>
        </g>
      </g>
    </g>
  </g>
</svg>