<?xml version="1.0" encoding="UTF-8"?>
<svg id="Layer_1" xmlns="http://www.w3.org/2000/svg" version="1.1" viewBox="0 0 100 100">
  <!-- Generator: Adobe Illustrator 29.5.0, SVG Export Plug-In . SVG Version: 2.1.0 Build 137)  -->
  <path d="M58.12,24.26s.46.11.58.15c.05.01.33.11.44.15,3.62,1.24,10.01,8.55,11.34,12.07.04.1.04.48-.15.44-3.27-3.48-6.61-5.95-11.05-7.71-.09-.04-.19-.1-.29-.15-.17-.07-.29-.09-.44-.15-.16-.06-.29-.09-.44-.15s-.29-.1-.44-.15-.28-.1-.44-.15c-.3-.13-.52-.12-.58-.15-.32-.16-.53-.12-.58-.15-.33-.19-.51-.53-.58-.87-.05-.24-.04-1.35,0-1.6,0-.05.13-.55.15-.58.08-.19.95-.96,1.16-1.02s1.04-.03,1.31,0v.02Z" style="fill: #151616;"/>
  <path d="M67.13,65.55c2.89,4.08,9.31,8.76,13.23,10.04.25.05.41.14.44.15.32.03,1.51.06,1.75,0,.12-.03,1-.95,1.02-1.02.03-.11.03-1.18,0-1.31-.4-1.56-7.42-4.44-9.16-8.87-.16-.4-.21-.26-.29-.87-.03-.24-.08-.07,0-.44.05-.24.09-.29.15-.44.17-.93.75-1.57,1.02-2.33.05-.14.1-.29.15-.44.08-.23.14-.28.15-.29.05-.15.1-.3.15-.44.05-.15.09-.29.15-.44s.05-.31.15-.58c.05-.14.09-.28.15-.44.05-.13.05-.31.15-.58.05-.15.09-.29.15-.44.05-.14.05-.3.15-.58.05-.14.06-.23.15-.44.04-.11.05-.22.15-.44.05-.11-.02-.16.15-.44.04-.09.02-.45.15-.65.37-.6.77-.46,1.16-.65.27-.16.37-.11.44-.15.25-.13.38-.11.44-.15.1-.05.2-.1.29-.15,1.57-.86,4.21-2.25,4.8-4.07.02-.06.14-.55.15-.58.04-.27.04-1.05,0-1.31,0-.02-.11-.3-.15-.44-.74-2.51-4.6-6.12-6.98-7.13-.09-.04-.25-.07-.44-.15-.12-.05-.3-.1-.44-.15-.13-.04-.31-.11-.44-.15-.16-.05-.41-.1-.58-.15s-.45-.12-.58-.15c-.27-.05-.6-.1-.87-.15-.47-.06-.98-.09-1.45-.15-.55-.07-1.2.07-1.75,0-.11,0-.12.19-.73,0-1.48-.47-4.7-3.98-6.33-5.09-1.37-.94-3.5-2.09-5.02-2.76-.09-.04-.23-.06-.44-.15-.2-.07-.28-.14-.29-.15-.14-.05-.3-.1-.44-.15s-.31-.11-.44-.15c-.16-.05-.36-.13-.44-.15-.17-.05-.39-.13-.44-.15-.18-.04-.41-.11-.58-.15-.23-.05-.5-.1-.73-.15s-.52-.11-.73-.15c-.35-.05-.82-.11-1.16-.15-.66-.02-1.72-.09-2.33,0-.11.02-.65.12-.73.15-1.15.35-1.67,1.31-1.45,2.47.57,3.08,7.34,6.97,10.03,8.14.09.04.23.06.44.15.1.04.25.07.44.15.18.07.28.14.29.15.14.05.29.1.44.15s.3.1.44.15.3.1.44.15c.14.05.3.1.44.15.19.06.37.08.58.15.15.05.3.1.44.15.18.06.37.08.58.15.18.06.38.09.58.15.18.05.38.09.58.15.19.05.37.08.58.15.23.07.46,0,.87.15.19.05.38.09.58.15s.37.08.58.15c.12.05.2.03.44.15.67.26,1.15.14,1.45,1.02.13.39.03.11,0,.29-.21,1.15-1.46,2.63-2.62,2.91-.27.07-.47.09-.73.15-.5.11-.81.12-1.31.15-.36.02-.52,0-.87,0-.57,0-1.04-.09-1.6-.15-.36-.04-.66-.09-1.02-.15-.26-.04-.46-.12-.58-.15-.26-.05-.47-.09-.73-.15-.2-.04-.39-.1-.58-.15-.2-.05-.36-.13-.44-.15-.19-.05-.38-.09-.58-.15-.18-.05-.33-.12-.44-.15-.15-.04-.3-.11-.44-.15-.15-.05-.3-.1-.44-.15-.15-.05-.3-.1-.44-.15-.23-.08-.28-.14-.29-.15-.15-.05-.29-.1-.44-.15-.23-.07-.28-.14-.29-.15-.14-.05-.3-.1-.44-.15s-.3-.1-.44-.15c-.31-.1-.54-.23-.73-.29-.15-.05-.29-.1-.44-.15-.23-.08-.28-.14-.29-.15-.31-.1-.55-.23-.73-.29-.14-.05-.3-.1-.44-.15-.14-.05-.3-.1-.44-.15-.24-.08-.28-.14-.29-.15-.15-.04-.31-.11-.44-.15-.18-.05-.39-.09-.58-.15-.18-.05-.38-.13-.44-.15-.18-.05-.41-.11-.58-.15-.19-.04-.46-.12-.58-.15-.22-.04-.52-.12-.73-.15-.28-.04-.62-.11-.87-.15-.43-.05-1.04-.13-1.45-.15-.63-.03-1.41-.04-2.04,0-.37.02-.92.1-1.31.15-.26.03-.6.1-.87.15-.21.04-.5.1-.73.15-.16.03-.4.1-.58.15-.05,0-.28.1-.44.15-.11.03-.3.1-.44.15s-.3.1-.44.15c-1.53.63-3.08,1.51-4.29,2.62-.59.1-.27-.37-.36-.58-.15-.32-.1-.49-.15-.58-.1-.22-.12-.38-.15-.44-.79-1.57-3.65-4.27-5.38-4.51-1.14-.16-1.42.46-1.89,1.31-.01.02-.08.26-.15.44-.03.07-.1.42-.15.58-.05.19-.14.41-.15.44-.05.25-.12.64-.15.87-.04.53-.07,1.53,0,2.04,0,.03.11.42.15.58.49,1.45,2.14,2.93,3.49,3.64.05.03.22.04.44.15.08.04.21.04.44.15.14.06.55-.14.58.15l.29.07-.15.22c.14.28-.14.69-.15.73-.06,2.05.26,4.4-.15,6.4-.19.95-.25,1.43-1.31,1.75-.64.19-.49.03-.87,0-.35-.03-.41-.14-.44-.15-.33-.04-.41-.14-.44-.15-.27-.03-.55-.14-.58-.15-.31-.03-1.51-.06-1.75,0-.59.16-1.66,1.61-1.89,2.18-.05.12-.02.28-.15.58-.05.12-.01.27-.15.58-.07.15.03.44-.15.87-.05.11-.02.19-.15.44-1.17,3.38-8.14,4.25-8.73,7.42-.03.16-.04.89,0,1.02.12.42,1.57,1.46,2.04,1.6.09.03.62.13.73.15.29.04.71,0,1.02,0,.21-.02.66-.1.87-.15.03,0,.31-.11.44-.15.02,0,.1-.07.29-.15.65-.28,1.98-1.14,2.55-1.6,1.2-.97,3.98-4.66,4.87-4.94.63-.2.5-.07,1.02,0,.29.04.41.14.44.15.2.05.39.1.58.15.27.04.41.14.44.15.25.05.41.14.44.15.23.04.48.13.58.15.23.04.49.13.58.15.27.05.62.11.87.15.68.04,1.5.02,2.18,0,.44-.03,1.01-.09,1.45-.15.24-.03.61-.1.87-.15.28-.05.61-.09.87-.15.24-.05.51-.09.73-.15.07-.02.31-.1.44-.15,3.38-1.27,4.71-3.6,6.06-6.06,5.55,3.08,11.99,5.58,23.03,4.6l.05.1Z" style="fill: #151616;"/>
  <path d="M84,68.03c.73.45,2.18,1.23,2.33,2.18.02.15.02.43,0,.58-.06.36-.94,1.56-1.38,1.45-.12-.03-1.23-1.52-1.75-1.89-1.87-1.35-6.85-3.93-7.34-6.54-.03-.16-.1-.77.22-.73,1.96,2.6,5.13,3.61,7.93,4.94h-.01Z" style="fill: #151616;"/>
  <rect x="0" y="0" width="100" height="100" style="fill: none;"/>
</svg>