<?xml version="1.0" encoding="UTF-8"?>
<svg id="Layer_1" xmlns="http://www.w3.org/2000/svg" version="1.1" viewBox="0 0 100 100">
  <!-- Generator: Adobe Illustrator 29.5.0, SVG Export Plug-In . SVG Version: 2.1.0 Build 137)  -->
  <path d="M95.54,32.67c-3.38-1.26-3.02,4.39-3.02,4.39l-7.29,16.8c-.9-3.22,1.03-9.85,1.03-9.85,0,0,2.55-3.79-1.61-3.79-3.87,0-1.56,3.62-1.56,3.62,0,0-2.67,8.32-2.71,9.84s-2.42,1.81-2.42,1.81c0,0-6.64-1.13-12.8-1.99-.22.2-.43.4-.62.57l-.16.14c-2.19,1.95-5.86,4.08-8.21,5.1l-.43.22-.31.08c-.08.02-.5.17-.5.17l-.11.03-.28.11-.19.06-.2.03-.17.05c-.32.09-.62.17-1.03.16-.07,0-.22.02-.36.02-.77,0-1.36-.21-1.8-.48-2.02,4.73-5.76,8.49-10.08,10.08-.08.03-.25.09-.42.14l-.32.11c-.17.06-.36.12-.5.16-.18.05-.46.12-.7.18l-.11.03c-.27.07-.74.16-1.07.21-.45.08-1.16.16-1.6.2-.47.02-.86.03-1.25.03-.39,0-.78-.01-1.16-.03-.59-.04-1.32-.12-1.86-.21-.15-.02-.46-.08-.75-.15l-.22-.05c-.17-.04-.38-.09-.59-.14l-.2-.05c-.11-.03-.3-.08-.51-.16l-.16-.05s-.18-.04-.21-.05h-.56s-.58-.4-.58-.4c-.19-.06-.36-.12-.48-.17-2.43-1.03-4.67-2.58-6.6-4.47l-1.27,1.16c-5.38,3.58-16.91,4.52-17.06,5.99-.15,1.51,55.68,0,60.29.08s26.19-.85,26.19-.85c0,0,2.95-2.56,2.72-6.89-.23-4.33-1.53-2.56-1.53-9.64s4.95-17.19,4.95-17.19c0,0,4.94-3.25.4-4.95Z"/>
  <path d="M42.46,27.3c.34.03.82.12,1.19.17.29.03.71.12,1.02.17.24.04.59.12.85.17.19.04.48.12.68.17.07.02.33.12.51.17.23.06.48.11.68.17.15.05.35.12.51.17.02,0,.11.09.34.17.19.07.38.12.51.17,7.24,3.02,12.07,9.29,15.08,16.33.08.21.16.32.17.34.05.16.12.35.17.51.1.24.24.72.34,1.02.09.35.17.32.17.34.06.25.17.48.17.51.05.38.17.48.17.51.03,1.26-1.72,2.74-2.64,3.56-1.8,1.61-5.17,3.61-7.4,4.57-.28.09-.32.16-.34.17-.18.05-.48.16-.51.17-.25.06-.48.16-.51.17-.17.03-.64.17-.68.17-.18,0-.58.07-.68-.08-.02-.25.03-.52,0-.76.1-.97.09-1.41,0-2.38-.04-.36-.12-.69-.17-1.02-.05-.31-.11-.55-.17-.85-.04-.25-.12-.47-.17-.68-.05-.25-.11-.44-.17-.68-.06-.19-.11-.34-.17-.51s-.1-.33-.17-.51c-.06-.17-.08-.29-.17-.51-1.74-4.77-4.42-8.12-9.32-9.87-.21-.08-.32-.11-.51-.17s-.3-.12-.51-.17c-.24-.06-.42-.12-.68-.17-.28-.05-.52-.14-.85-.17-1.04-.14-1.51-.13-2.55,0-.39.03-.66.11-1.02.17-.25.05-.44.11-.68.17-.2.05-.33.11-.51.17s-.29.08-.51.17c-3.5,1.25-5.65,3.15-6.97,6.6-.02.05-.09.13-.17.34-.06.18-.12.31-.17.51-.08.26-.12.4-.17.68-.02.12-.14.34-.17.68-.2,1.34-.22,2.22,0,3.57.03.33.16.59.17.68.04.27.12.45.17.68.06.19.1.32.17.51.9,2.93,2.81,5.47,5.93,6.29.26.07.39.13.68.17,1.17.21,1.89.23,3.06,0,.33-.04.53-.14.68-.17.21-.06.29-.08.51-.17,2.16-.65,3.48-2.01,4.09-4.24.07-.26.13-.4.17-.68.19-1.13.23-1.75,0-2.89-.06-.29-.13-.37-.17-.51-.06-.2-.06-.26-.17-.51-.58-1.94-1.65-2.98-3.56-3.58-.29-.09-.36-.13-.68-.17-.73-.11-.78-.16-1.53,0-.28.06-.28.07-.51.17-1.04.44-1.53.81-1.19,2.12s1.47.73,2.04.76c.22.07.63-.07.85,0,.57.17,1.74,1.5,1.87,2.04.05.24.06,2.15,0,2.38-.12.5-1.7,2.03-2.21,2.21-.1.04-.48.16-.51.17-.33.06-1.87.06-2.21,0-.03,0-.37-.13-.51-.17-1.32-.42-3.21-2.81-3.73-4.09-.06-.14-.12-.35-.17-.51s-.13-.49-.17-.68c-.07-.28-.15-.9-.17-1.19-.02-.39-.02-.8,0-1.19.02-.28.1-.93.17-1.19.02-.07.13-.4.17-.51.06-.17.12-.38.17-.51.78-1.84,3.56-4.29,5.44-4.92.13-.04.46-.16.51-.17.15-.04.64-.17.68-.17.58-.08,1.96-.07,2.55,0,.11.01.67.13.85.17.03,0,.35.12.51.17.13.04.38.12.51.17,3.1,1.18,6.08,4.9,7.45,7.83.04.08.07.27.17.51.09.26.16.32.17.34.05.17.16.45.17.51.05.18.15.57.17.68.04.23.17.64.17.68.03.27.17.81.17.85v.34c0,.06-.15.89-.17,1.19,0,.03-.13.43-.17.68-.05.26-.11.6-.17.85-.02.07-.12.33-.17.51-.04.14-.12.35-.17.51s-.11.36-.17.51c-1.52,3.81-4.6,7.37-8.51,8.81-.15.06-.35.11-.51.17-.15.05-.37.13-.51.17-.2.06-.47.12-.68.17-.24.06-.6.13-.85.17-.38.07-.98.14-1.36.17-.66.03-1.37.03-2.04,0-.45-.03-1.08-.1-1.53-.17-.23-.03-.6-.12-.85-.17-.2-.04-.47-.12-.68-.17-.08-.02-.34-.12-.51-.17-.22-.06-.49-.11-.68-.17-.02,0-.1-.09-.34-.17-.19-.07-.39-.12-.51-.17-4.57-1.93-8.35-5.96-10.17-10.55-.06-.15-.11-.34-.17-.51-.05-.15-.12-.35-.17-.51s-.13-.38-.17-.51c-.06-.2-.12-.48-.17-.68s-.15-.55-.17-.68c-.06-.3-.13-.73-.17-1.02-.06-.42-.14-.95-.17-1.36-.11-1.47-.1-3.8.01-5.27.03-.35.12-.82.17-1.19.04-.29.11-.72.17-1.02.02-.13.12-.47.17-.68s.11-.48.17-.68c.04-.13.12-.35.17-.51s.12-.36.17-.51c.06-.17.11-.36.17-.51,2.14-5.37,6.41-9.17,11.58-11.52.2-.08.32-.16.34-.17.16-.06.35-.11.51-.17s.36-.12.51-.17c.16-.05.38-.13.51-.17.19-.05.44-.15.51-.17.21-.05.48-.13.68-.17.23-.05.54-.14.68-.17.27-.05.6-.13.85-.17.28-.04.69-.15.85-.17.43-.05.95-.14,1.36-.17,1.54-.13,4.06-.11,5.6.01v.03Z"/>
</svg>