<?xml version="1.0" encoding="UTF-8"?>
<svg xmlns="http://www.w3.org/2000/svg" version="1.1" viewBox="0 0 100 100">
  <defs>
    <style>
      .cls-1 {
        fill: #231f20;
      }
    </style>
  </defs>
  <!-- Generator: Adobe Illustrator 28.7.7, SVG Export Plug-In . SVG Version: 1.2.0 Build 194)  -->
  <g>
    <g id="Layer_1">
      <g>
        <path class="cls-1" d="M17.8,5.7c.1-.3.3-.5.5-.6s.5-.2.8-.2c.6,0,.9.1,1.1.3s.3.6.3,1.3v2.8c0,0,0,.2,0,.2,0,.6-.1,1-.3,1.2s-.6.3-1.2.3-1.2-.4-1.6-1.1c0-.1,0-.2-.1-.3-.3-.6-.7-1.1-1.2-1.4s-1.1-.5-1.8-.5-1.6.2-2.1.6-.8.9-.8,1.6c0,.9,1.2,1.6,3.7,2.1.4,0,.8.2,1,.2,1.9.4,3.2,1,4.1,1.9s1.3,2,1.3,3.4-.6,3.2-1.8,4.2-3,1.5-5.2,1.5-1.7,0-2.4-.2-1.4-.3-2-.5c-.2.3-.3.4-.5.5s-.5.2-.8.2c-.6,0-1-.1-1.3-.4s-.4-.6-.4-1.2v-3.4c0,0,0-.2,0-.2,0-.6.1-1.1.4-1.3s.7-.4,1.3-.4,1.2.5,1.6,1.4c0,.2.2.4.2.5.4.8.9,1.3,1.6,1.7s1.5.6,2.5.6,1.6-.2,2.1-.6.7-.9.7-1.6c0-1-1.1-1.8-3.4-2.4-.7-.2-1.2-.3-1.6-.4-1.9-.5-3.2-1.1-3.9-1.9s-1.1-1.8-1.1-3.1.6-3,1.9-4.1,2.9-1.6,4.9-1.6,1.3,0,2,.2,1.3.3,1.9.6Z"/>
        <path class="cls-1" d="M55.1,8.5h-3.1v10.9h2.5c.7,0,1.1.1,1.4.4s.4.7.4,1.2-.1,1-.4,1.2-.8.4-1.4.4h-8.7c-.6,0-1.1-.1-1.4-.4s-.4-.7-.4-1.2.1-1,.4-1.2.7-.4,1.4-.4h2.5v-10.9h-3.1v3c0,0,0,.4,0,.4,0,.5-.1.8-.4,1.1s-.6.4-1.1.4-.9-.1-1.2-.4-.4-.7-.4-1.3h0c0-.1.2-4.5.2-4.5,0-.9.1-1.4.4-1.6s.6-.3,1.3-.3h12.6c.6,0,1.1,0,1.3.3.2.2.3.7.4,1.6v4.4c.1,0,.1.1.1.1,0,.6-.1,1.1-.4,1.3s-.6.4-1.2.4-.9-.1-1.1-.4c-.2-.3-.4-.8-.4-1.5v-3Z"/>
        <path class="cls-1" d="M83.1,8.6v7.7c0,1.4.2,2.3.7,2.9.5.6,1.3.9,2.4.9s1.9-.3,2.4-.9.7-1.5.7-2.9v-7.7h-.2c-.5,0-.9-.1-1.2-.4-.3-.3-.4-.7-.4-1.2s.1-1,.4-1.2c.3-.3.7-.4,1.4-.4h3.7c.7,0,1.1.1,1.4.4.3.3.4.7.4,1.2s-.1.9-.4,1.2c-.3.3-.7.4-1.2.4h-.2v7.6c0,2.5-.5,4.2-1.6,5.3-1.1,1.1-2.8,1.6-5.1,1.6s-4.2-.5-5.3-1.6c-1.1-1.1-1.6-2.9-1.6-5.4v-7.6h-.2c-.5,0-.9-.1-1.2-.4s-.4-.7-.4-1.2.1-1,.4-1.2c.3-.3.8-.4,1.4-.4h3.8c.7,0,1.1.1,1.4.4s.4.7.4,1.2-.1.9-.4,1.2c-.3.3-.7.4-1.2.4h-.2Z"/>
        <path class="cls-1" d="M10.9,44.6l3.5,10.4,3.6-10.4h-.4c-.6,0-1.1-.1-1.4-.4s-.4-.7-.4-1.2.1-1,.4-1.2.7-.4,1.4-.4h3.7c.7,0,1.1.1,1.4.4s.4.7.4,1.2-.1.9-.4,1.2-.7.4-1.2.4h-.2l-4.5,12.7c-.2.7-.5,1.1-.7,1.2s-.6.2-1.1.2h-1.8c-.8,0-1.4-.4-1.8-1.3h0c0,0-4.6-12.8-4.6-12.8h-.2c-.5,0-.9-.1-1.1-.4s-.4-.7-.4-1.2.1-1,.4-1.3.7-.4,1.4-.4h4.4c.6,0,1.1.1,1.4.4s.4.7.4,1.2-.1,1-.4,1.2-.7.4-1.4.4h-.4Z"/>
        <path class="cls-1" d="M45.9,44.6l.5,8.6,1.8-6.3c.1-.5.4-.8.7-1.1.3-.2.7-.4,1.2-.4s.9.1,1.2.3c.3.2.5.6.7,1.1l1.8,6.3.5-8.6h-.4c-.6,0-1-.1-1.3-.4s-.4-.7-.4-1.2.1-1,.4-1.3.7-.4,1.4-.4h3.5c.7,0,1.1.1,1.4.4.3.3.4.7.4,1.2s-.1.9-.4,1.2c-.3.3-.7.4-1.2.4h-.2l-1.4,12.9c0,.5-.1.8-.3,1s-.5.2-1,.2h-.7c-.4,0-.7,0-.9-.2-.2-.2-.4-.5-.6-1.2l-2.7-8.7-2.6,8.7c-.2.6-.4,1-.5,1.2-.2.2-.5.2-.9.2h-.7c-.5,0-.9,0-1-.2s-.2-.5-.3-1l-1.5-12.9h-.2c-.5,0-.9-.1-1.2-.4s-.4-.7-.4-1.2.1-1,.4-1.2.8-.4,1.4-.4h3.5c.7,0,1.1.1,1.4.4s.4.7.4,1.2-.1,1-.4,1.2-.7.4-1.3.4h-.4Z"/>
        <path class="cls-1" d="M84.3,44.6l2,2.8,1.9-2.8c-.5,0-.8-.2-1.1-.5s-.4-.7-.4-1.1.1-1,.4-1.2.8-.4,1.4-.4h3.3c.7,0,1.1.1,1.4.4.3.3.4.7.4,1.2s-.1.9-.4,1.2c-.3.3-.7.4-1.3.4h-.4l-3.7,5.1,4.3,5.8h.4c.6,0,1,.1,1.3.4.3.3.4.7.4,1.2s-.1,1-.4,1.2-.8.4-1.4.4h-3.9c-.7,0-1.1-.1-1.4-.4-.3-.3-.4-.7-.4-1.2s.1-.9.4-1.2.6-.4,1.2-.4l-2.3-3.3-2.3,3.3c.6,0,1,.1,1.3.4.3.3.4.7.4,1.2s-.1,1-.4,1.2-.8.4-1.4.4h-3.4c-.7,0-1.1-.1-1.4-.4-.3-.3-.4-.7-.4-1.2s.1-.9.4-1.2c.3-.3.7-.4,1.3-.4h.4l4-5.5-3.9-5.4h-.4c-.6,0-1-.1-1.3-.4-.3-.3-.4-.7-.4-1.2s.1-1,.4-1.2.8-.4,1.4-.4h3.8c.7,0,1.1.1,1.4.4.3.3.4.7.4,1.2s-.1.9-.4,1.2-.6.4-1.1.5Z"/>
        <path class="cls-1" d="M12,80.6l2.3,4.8,2.2-4.8h0c-.4,0-.8-.1-1-.4s-.3-.7-.3-1.2.1-1,.4-1.3c.2-.2.6-.4,1.2-.4h3.3c.7,0,1.1.1,1.4.4.3.2.4.7.4,1.3s-.1.9-.4,1.2-.7.4-1.2.4h-.2l-3.9,7.3v3.6h1.9c.7,0,1.1.1,1.4.4.3.2.4.7.4,1.2s-.1,1-.4,1.2c-.3.3-.8.4-1.4.4h-7.6c-.7,0-1.1-.1-1.4-.4s-.4-.7-.4-1.2.1-1,.4-1.2c.3-.2.7-.4,1.4-.4h1.9v-3.2l-4.2-7.7h-.2c-.5,0-.9-.1-1.2-.4s-.4-.7-.4-1.2.1-1,.4-1.3c.3-.2.7-.4,1.4-.4h3.8c.6,0,1,.1,1.2.4s.4.7.4,1.2-.1.9-.3,1.2c-.2.3-.6.4-1,.4h-.2Z"/>
        <path class="cls-1" d="M48.2,91.4h4.9v-2.4c0-.6.1-1.1.4-1.4.3-.3.7-.4,1.3-.4s.9.1,1.2.4c.3.3.4.7.4,1.3v4c-.2.9-.3,1.4-.5,1.6-.2.2-.7.3-1.4.3h-9.7c-.5,0-.9-.1-1.2-.4s-.4-.6-.4-1,0-.4.1-.7.2-.4.3-.6l7.9-11.5h-4.5v2.1c-.1.7-.3,1.2-.5,1.4s-.7.4-1.3.4-.9-.1-1.2-.4-.4-.7-.4-1.3v-3.7c.2-.9.3-1.4.5-1.5.2-.2.7-.3,1.4-.3h9.3c.5,0,.9.1,1.2.4.3.3.4.6.4,1s0,.5-.1.7c0,.2-.2.5-.3.6l-7.8,11.4Z"/>
        <path class="cls-1" d="M86.1,75.7c2.2,0,4,.9,5.3,2.6,1.3,1.7,2,4.1,2,7.1s-.7,5.4-2,7.1c-1.3,1.7-3.1,2.6-5.3,2.6s-4-.9-5.3-2.6c-1.3-1.7-2-4.1-2-7.1s.7-5.4,2-7.1c1.3-1.7,3.1-2.6,5.3-2.6ZM86.2,79c-1,0-1.9.6-2.5,1.7-.6,1.1-.9,2.7-.9,4.7s.3,3.6.9,4.7,1.4,1.7,2.5,1.7,1.9-.6,2.5-1.7c.6-1.1.9-2.7.9-4.7s-.3-3.6-.9-4.7c-.6-1.1-1.4-1.7-2.5-1.7Z"/>
      </g>
    </g>
  </g>
</svg>