<?xml version="1.0" encoding="UTF-8"?>
<svg id="Layer_1" xmlns="http://www.w3.org/2000/svg" version="1.1" viewBox="0 0 300 300">
  <!-- Generator: Adobe Illustrator 29.8.4, SVG Export Plug-In . SVG Version: 2.1.1 Build 6)  -->
  <g>
    <ellipse cx="211.39" cy="137.76" rx="38" ry="37"/>
    <path d="M211.39,294.02c33.86,0,63.82-8.82,82.11-22.35-8.99-45.05-26.28-78.49-82.11-78.49s-73.12,33.45-82.11,78.49c18.29,13.53,48.25,22.35,82.11,22.35Z"/>
  </g>
  <g>
    <ellipse cx="58.47" cy="30.52" rx="21.91" ry="21.34"/>
    <path d="M58.47,120.63c19.53,0,36.8-5.09,47.35-12.89-5.19-25.98-15.15-45.26-47.35-45.26s-42.17,19.29-47.35,45.26c10.55,7.8,27.82,12.89,47.35,12.89Z"/>
  </g>
  <g>
    <path d="M95.35,219.98c-8.57-4.35-15.75-10.48-21.37-17.39-5.64-6.92-9.79-14.62-12.68-22.56-5.75-15.88-6.54-32.82-2.83-48.14.1,15.76,4.96,30.89,13.13,43.01,4.08,6.05,9.02,11.34,14.51,15.41,5.48,4.08,11.51,6.91,17.54,8.21l-8.3,21.45Z"/>
    <polygon points="91.23 180.49 92.08 206.39 74.03 224.97 135.36 223.13 91.23 180.49"/>
  </g>
</svg>