<?xml version="1.0" encoding="UTF-8"?>
<svg xmlns="http://www.w3.org/2000/svg" version="1.1" viewBox="0 0 100 100">
  <defs>
    <style>
      .cls-1 {
        fill: #fff;
      }
    </style>
  </defs>
  <!-- Generator: Adobe Illustrator 28.7.3, SVG Export Plug-In . SVG Version: 1.2.0 Build 164)  -->
  <g>
    <g id="Layer_1">
      <g>
        <path class="cls-1" d="M85.102,37.394c-.695,17.138-14.586,28.555-35.014,28.555-21.555,0-36.044-10.986-36.075-27.342-3.034,4.394-4.759,9.407-4.759,14.732,0,17.347,18.243,31.409,40.747,31.409s40.747-14.062,40.747-31.409c0-5.822-2.063-11.271-5.645-15.946Z"/>
        <path class="cls-1" d="M50.087,15.251c-14.736,0-33.242,8.567-33.242,23.303s13.365,24.56,33.242,24.56c17.706,0,32.213-9.253,32.213-27.073,0-9.938-13.365-20.79-32.213-20.79ZM25.762,39.51c2.573,5.251,7.338,8.221,13.855,10.311-16.574-2.818-14.361-9.677-13.855-10.311Z"/>
      </g>
    </g>
  </g>
</svg>