<?xml version="1.0" encoding="UTF-8"?>
<svg id="Layer_1" xmlns="http://www.w3.org/2000/svg" version="1.1" viewBox="0 0 256 256">
  <!-- Generator: Adobe Illustrator 29.5.1, SVG Export Plug-In . SVG Version: 2.1.0 Build 141)  -->
  <g>
    <path d="M135,99.31h-14s-4.29,0-4.29,0c-1.78,0-3.29,1.42-3.3,3.2,0,.01,0,.02,0,.03v7.47c0,1.82,1.48,3.3,3.3,3.3h.99c1.82,0,3.3,1.48,3.3,3.3v9.34c0,1.84,1.5,3.31,3.34,3.3,1.22-.01,2.44-.02,3.66-.02s2.44,0,3.66.02c1.84.02,3.34-1.46,3.34-3.3v-9.34c0-1.82,1.48-3.3,3.3-3.3h.99c1.82,0,3.3-1.48,3.3-3.3v-7.47s0-.02,0-.03c0-1.78-1.51-3.2-3.3-3.2h-4.29Z"/>
    <path d="M236.76,99.31h-39.26s-14,0-14,0h0s-15.71,0-15.71,0c-1.76,0-3.2,1.44-3.2,3.2v.03s0,7.62,0,7.62c0,1.74,1.41,3.15,3.15,3.15h12.62c1.74,0,3.15,1.41,3.15,3.15v45.71c0,1.74-1.41,3.15-3.15,3.15h-3.63c-1.74,0-3.15,1.41-3.15,3.15v7.71c0,1.74,1.41,3.15,3.15,3.15h60.03c8.97,0,16.24-7.27,16.24-16.24v-47.51c0-8.97-7.27-16.24-16.24-16.24ZM235.85,165.31h-35.21c-1.74,0-3.15-1.41-3.15-3.15v-45.71c0-1.74,1.41-3.15,3.15-3.15h35.21c1.74,0,3.15,1.41,3.15,3.15v45.71c0,1.74-1.41,3.15-3.15,3.15Z"/>
    <path d="M79.27,165.31h-3.63c-1.74,0-3.15-1.41-3.15-3.15v-45.71c0-1.74,1.41-3.15,3.15-3.15h12.62c1.74,0,3.15-1.41,3.15-3.15v-7.66c0-1.76-1.44-3.2-3.2-3.2h-15.71s-14,0-14,0h0s-39.03,0-39.03,0c-9.1,0-16.47,7.38-16.47,16.47v47.05c0,9.1,7.38,16.47,16.47,16.47h59.8c1.74,0,3.15-1.41,3.15-3.15v-7.71c0-1.74-1.41-3.15-3.15-3.15ZM55.35,165.31H20.15c-1.74,0-3.15-1.41-3.15-3.15v-45.71c0-1.74,1.41-3.15,3.15-3.15h35.21c1.74,0,3.15,1.41,3.15,3.15v45.71c0,1.74-1.41,3.15-3.15,3.15Z"/>
  </g>
  <path d="M160.59,134.44v-31.9c0-17.97-14.62-32.59-32.59-32.59s-32.59,14.62-32.59,32.59v31.9c-3,.22-6,.47-8.99.76v70.91c27.72,3.41,55.44,3.41,83.16,0v-70.91c-3-.29-6-.53-8.99-.76ZM109.41,133.62v-31.08c0-10.25,8.34-18.59,18.59-18.59s18.59,8.34,18.59,18.59v31.08c-12.39-.53-24.79-.53-37.18,0Z"/>
</svg>