<?xml version="1.0" encoding="UTF-8"?>
<svg id="Layer_1" xmlns="http://www.w3.org/2000/svg" version="1.1" viewBox="0 0 256 256">
  <!-- Generator: Adobe Illustrator 29.5.1, SVG Export Plug-In . SVG Version: 2.1.0 Build 141)  -->
  <path d="M160.82,134.44v-36.9c0-17.97-14.62-32.59-32.59-32.59s-32.59,14.62-32.59,32.59v13.45c0,3.87,3.13,7,7,7s7-3.13,7-7v-13.45c0-10.25,8.34-18.59,18.59-18.59s18.59,8.34,18.59,18.59v36.08c-20.06-.85-40.11-.33-60.17,1.58v70.91c27.72,3.41,55.44,3.41,83.16,0v-70.91c-3-.29-6-.53-8.99-.76Z"/>
  <g>
    <path d="M135.23,99.31h0s-14,0-14,0h0s-5.35,0-5.35,0c-1.24,0-2.24,1-2.24,2.24v9.44s0,.02,0,.02c0,1.25.96,2.3,2.21,2.3h3.14c1.24,0,2.24,1,2.24,2.24v11.48c0,1.25,1.02,2.25,2.27,2.23,1.56-.02,3.11-.03,4.67-.03s3.2,0,4.8.03c1.25.01,2.27-.99,2.27-2.23v-11.48c0-1.24,1-2.24,2.24-2.24h3.12c1.24,0,2.24-1,2.24-2.24v-9.53c0-1.24-1-2.24-2.24-2.24h-5.35Z"/>
    <path d="M80.39,165.31h-5.4c-1.25,0-2.26-1.01-2.26-2.26v-47.48c0-1.25,1.01-2.26,2.26-2.26h14.33c1.28,0,2.32-1.04,2.32-2.32h0v-9.42c0-1.25-1.01-2.26-2.26-2.26h-16.65s-14,0-14,0h0s-41.06,0-41.06,0c-7.97,0-14.44,6.46-14.44,14.44v51.24c0,7.91,6.41,14.33,14.33,14.33h62.83c1.25,0,2.26-1.01,2.26-2.26v-9.48c0-1.25-1.01-2.26-2.26-2.26ZM56.47,165.31H19.49c-1.25,0-2.26-1.01-2.26-2.26v-47.48c0-1.25,1.01-2.26,2.26-2.26h36.98c1.25,0,2.26,1.01,2.26,2.26v47.48c0,1.25-1.01,2.26-2.26,2.26Z"/>
    <path d="M236.56,99.31h-38.82s-14,0-14,0h0s-15.13,0-15.13,0c-2.09,0-3.78,1.69-3.78,3.78v6.45c0,2.09,1.69,3.78,3.78,3.78h11.36c2.09,0,3.78,1.69,3.78,3.78v44.45c0,2.09-1.69,3.78-3.78,3.78h-2.36c-2.09,0-3.78,1.69-3.78,3.78v6.45c0,2.09,1.69,3.78,3.78,3.78h58.96c9.21,0,16.68-7.47,16.68-16.68v-46.64c0-9.21-7.47-16.68-16.68-16.68ZM235.46,165.31h-33.95c-2.09,0-3.78-1.69-3.78-3.78v-44.45c0-2.09,1.69-3.78,3.78-3.78h33.95c2.09,0,3.78,1.69,3.78,3.78v44.45c0,2.09-1.69,3.78-3.78,3.78Z"/>
  </g>
</svg>