<?xml version="1.0" encoding="utf-8"?>
<!-- Generator: Adobe Illustrator 27.9.6, SVG Export Plug-In . SVG Version: 9.03 Build 54986)  -->
<svg version="1.1" id="Layer_1" xmlns="http://www.w3.org/2000/svg" xmlns:xlink="http://www.w3.org/1999/xlink" x="0px" y="0px"
	 viewBox="0 0 100 100" style="enable-background:new 0 0 100 100;" xml:space="preserve">
<g>
</g>
<ellipse cx="21.5" cy="22.2" rx="11.2" ry="11.3"/>
<path style="opacity:0.5;" d="M77.5,3h-55c-11,0-20,9-20,20v55c0,11,9,20,20,20h55c11,0,20-9,20-20V23C97.5,12,88.5,3,77.5,3z
	 M57,51.1L57,51.1l-1.8,29.4l-15.7-4.1l2.9-25.8l-16.3-1.8L50,20.6l23.9,28.2L57,51.1z"/>
<path d="M73.8,23.7L61.6,34.3l12.3,14.5L57,51.1h0l-1.8,29.4l-15.7-4.1L42.4,51L36,56.5l-6.8-7.5l-3.1-0.3l1.3-1.6l-7.2-7.9
	L2.5,63.1V78c0,11,9,20,20,20h55c11,0,20-9,20-20V51.9L73.8,23.7z"/>
</svg>
