<?xml version="1.0" encoding="UTF-8"?>
<svg id="Layer_1" xmlns="http://www.w3.org/2000/svg" version="1.1" viewBox="0 0 74.3 74.3">
  <!-- Generator: Adobe Illustrator 29.5.0, SVG Export Plug-In . SVG Version: 2.1.0 Build 137)  -->
  <circle cx="29.79" cy="29.7" r="23.3" style="isolation: isolate; opacity: .2;"/>
  <path d="M71.23,64.4l-18.6-18.5c3.2-4.6,5.1-10.1,5.1-16.1,0-15.4-12.6-28-28-28S1.73,14.4,1.73,29.8s12.6,28,28,28c6,0,11.6-1.9,16.1-5.1l18.6,18.6c.9.9,2.1,1.4,3.4,1.4s2.4-.5,3.4-1.4c1.8-2,1.8-5,0-6.9ZM11.23,29.7c0-10.2,8.3-18.5,18.5-18.5s18.5,8.3,18.5,18.5-8.3,18.5-18.5,18.5-18.5-8.3-18.5-18.5Z"/>
  <path d="M39.83,34.2h-20.09c-2.49,0-4.5-2.01-4.5-4.5s2.01-4.5,4.5-4.5h20.09c2.49,0,4.5,2.01,4.5,4.5s-2.01,4.5-4.5,4.5Z"/>
</svg>