<?xml version="1.0" encoding="utf-8"?>
<!-- Generator: Adobe Illustrator 29.5.0, SVG Export Plug-In . SVG Version: 9.03 Build 0)  -->
<svg version="1.0" id="Layer_1" xmlns="http://www.w3.org/2000/svg" xmlns:xlink="http://www.w3.org/1999/xlink" x="0px" y="0px"
	 viewBox="0 0 860 869" style="enable-background:new 0 0 860 869;" xml:space="preserve">
<g>
	<path style="fill:#FF4390;" d="M731.26,315.47c-11.8-107.3-59.7-193-138-246.7c-34.6-23.7-79.3-40.4-124.1-46.2
		c-14.6-1.9-49-2.7-63.9-1.5c-38.4,3.1-76.4,13.6-109.5,30.2c-28.7,14.4-61.3,39.3-82,62.7c-49.9,56.4-78.4,125.7-86.6,210.5
		c-1.7,17.8-1.4,59.4,0.5,74.5c11.5,90.7,61.3,188.5,134.6,264.3c50.7,52.4,108.5,88.3,151.5,93.9c0.07,0.01,0.13,0.02,0.19,0.02
		c-0.08,0.17-0.16,0.33-0.23,0.5c-1.79,3.38-3.58,10.95-4.18,16.72c-0.6,5.77-3.19,15.53-5.77,21.5
		c-2.59,5.97-5.38,14.33-5.97,18.52c-1,5.38-2.99,8.36-6.97,10.35c-7.17,3.58-8.76,8.36-5.18,14.14c5.18,7.57,15.53,9.76,45.99,9.56
		c20.91,0,29.67-1,35.24-3.38c11.95-4.98,12.54-17.12,1-20.11c-3.58-0.8-5.57-4.78-10.75-21.5c-3.38-11.35-6.77-24.89-7.37-30.26
		c-0.8-5.38-2.59-12.54-4.18-15.73c-0.04-0.09-0.08-0.17-0.12-0.26c9.16-1.25,23.4-5.33,35.81-10.27c50.8-20.2,108.4-68.4,155.7-130
		c9.1-11.8,28.1-39.9,36.2-53.5c21-34.9,40.3-81,49.9-119C734.16,400.47,736.56,363.87,731.26,315.47z"/>
	<path style="fill:#FFF0F7;" d="M331.66,101.13c-22.3,18.7-27.2,23.2-36,33.1c-14,15.8-19,22.8-31.2,44c-1,1.6-3.4,5.7-5.3,9
		c-2,3.3-6.3,11.4-9.6,18c-8.1,16-13.3,25.5-17.7,32.3c-5.8,8.8-14.5,20.5-16.9,22.7c-11.5,10.5-14.1,12.2-22.9,15
		c-5.4,1.7-6,1.7-11.1,0.1c-4.9-1.5-5.4-2-7.5-6.9c-4.2-9.4-3.8-17.6,1.5-34.5c3.1-9.7,9.2-22.7,25.4-53.7
		c5.4-10.3,5.9-11.2,15.4-25.6c19.8-30,69.1-69.8,98.3-79.2c7.7-2.5,12-2.7,22.2-1.3c0.7,0.1,2.2,1,3.3,1.9c1,0.9,2.4,1.7,2.9,1.7
		c2.2,0,1.4,6.4-1.6,12.7C339.16,93.93,336.36,97.23,331.66,101.13z"/>
	<path style="fill:#FFF0F7;" d="M697.56,393.23c-4.5,23.5-7.3,37.2-8.6,41.5c-11.9,39.3-19.3,57.4-32.9,80.3
		c-5.4,9-12.6,19-13.4,18.3c-0.2-0.3-1.4,0.1-2.6,0.9c-2.3,1.7-5.6,2-5.6,0.5c0-0.5-0.6-0.7-1.3-0.4c-1.7,0.6-3.1-1-4.5-5.3
		c-1.2-3.6,0.1-11.5,4.2-24.8c1.4-4.4,2.9-10,3.4-12.5c0.6-2.5,2.4-9.7,4.1-16c1.8-6.3,4.5-17.5,6.1-24.9c1.6-7.4,3.2-14.1,3.4-15
		c0.3-0.9,0.7-3.4,1.1-5.5c0.3-2.1,1.4-8.9,2.5-15c4.8-27.5,6.1-48.4,4.8-74.6c-1.6-31.6-8.2-66.8-16.9-90.3
		c-1.7-4.5-4.2-11.5-5.5-15.5c-1.3-4-6.8-16.2-12-27c-12.8-26.2-14.3-31.6-10.4-39.2c2.5-4.8,8.2-8.2,12.5-7.5
		c1.6,0.3,5.4,2,8.4,3.8c9.2,5.5,23.4,24.3,33.5,44.5c5,9.9,14.8,32,17.3,38.7c4.9,13.6,10.9,42.6,14,67.5
		C701.36,333.83,700.46,377.83,697.56,393.23z"/>
</g>
</svg>
