<?xml version="1.0" encoding="utf-8"?>
<!-- Generator: Adobe Illustrator 29.5.0, SVG Export Plug-In . SVG Version: 9.03 Build 0)  -->
<svg version="1.0" id="Layer_1" xmlns="http://www.w3.org/2000/svg" xmlns:xlink="http://www.w3.org/1999/xlink" x="0px" y="0px"
	 viewBox="0 0 100 100" style="enable-background:new 0 0 100 100;" xml:space="preserve">
<g>
	<path style="fill:#FF4390;" d="M86.38,35.62c-1.43-12.96-7.21-23.31-16.67-29.8c-4.18-2.86-9.58-4.88-14.99-5.58
		c-1.76-0.23-5.92-0.33-7.72-0.18c-4.64,0.37-9.23,1.64-13.22,3.65c-3.47,1.74-7.4,4.75-9.9,7.57c-6.03,6.81-9.47,15.18-10.46,25.42
		c-0.21,2.15-0.17,7.17,0.06,9c1.39,10.95,7.4,22.77,16.26,31.92c6.12,6.33,13.1,10.66,18.3,11.34c0.01,0,0.02,0,0.02,0
		c-0.01,0.02-0.02,0.04-0.03,0.06c-0.22,0.41-0.43,1.32-0.5,2.02s-0.39,1.88-0.7,2.6c-0.31,0.72-0.65,1.73-0.72,2.24
		c-0.12,0.65-0.36,1.01-0.84,1.25c-0.87,0.43-1.06,1.01-0.63,1.71c0.63,0.91,1.88,1.18,5.55,1.15c2.53,0,3.58-0.12,4.26-0.41
		c1.44-0.6,1.51-2.07,0.12-2.43c-0.43-0.1-0.67-0.58-1.3-2.6c-0.41-1.37-0.82-3.01-0.89-3.65c-0.1-0.65-0.31-1.51-0.5-1.9
		c0-0.01-0.01-0.02-0.01-0.03c1.11-0.15,2.83-0.64,4.32-1.24c6.14-2.44,13.09-8.26,18.8-15.7c1.1-1.43,3.39-4.82,4.37-6.46
		c2.54-4.22,4.87-9.78,6.03-14.37C86.73,45.89,87.02,41.47,86.38,35.62z"/>
	<path style="fill:#FFF0F7;" d="M38.12,9.74c-2.69,2.26-3.29,2.8-4.35,4c-1.69,1.91-2.29,2.75-3.77,5.31
		c-0.12,0.19-0.41,0.69-0.64,1.09c-0.24,0.4-0.76,1.38-1.16,2.17c-0.98,1.93-1.61,3.08-2.14,3.9c-0.7,1.06-1.75,2.48-2.04,2.74
		c-1.39,1.27-1.7,1.47-2.77,1.81c-0.65,0.21-0.72,0.21-1.34,0.01c-0.59-0.18-0.65-0.24-0.91-0.83c-0.51-1.14-0.46-2.13,0.18-4.17
		c0.37-1.17,1.11-2.74,3.07-6.49c0.65-1.24,0.71-1.35,1.86-3.09c2.39-3.62,8.35-8.43,11.87-9.57c0.93-0.3,1.45-0.33,2.68-0.16
		c0.08,0.01,0.27,0.12,0.4,0.23c0.12,0.11,0.29,0.21,0.35,0.21c0.27,0,0.17,0.77-0.19,1.53C39.03,8.87,38.69,9.26,38.12,9.74z"/>
	<path style="fill:#FFF0F7;" d="M82.31,45.01c-0.54,2.84-0.88,4.49-1.04,5.01c-1.44,4.75-2.33,6.93-3.97,9.7
		c-0.65,1.09-1.52,2.29-1.62,2.21c-0.02-0.04-0.17,0.01-0.31,0.11c-0.28,0.21-0.68,0.24-0.68,0.06c0-0.06-0.07-0.08-0.16-0.05
		c-0.21,0.07-0.37-0.12-0.54-0.64c-0.14-0.43,0.01-1.39,0.51-3c0.17-0.53,0.35-1.21,0.41-1.51c0.07-0.3,0.29-1.17,0.5-1.93
		c0.22-0.76,0.54-2.11,0.74-3.01s0.39-1.7,0.41-1.81c0.04-0.11,0.08-0.41,0.13-0.66c0.04-0.25,0.17-1.07,0.3-1.81
		c0.58-3.32,0.74-5.85,0.58-9.01c-0.19-3.82-0.99-8.07-2.04-10.91c-0.21-0.54-0.51-1.39-0.66-1.87c-0.16-0.48-0.82-1.96-1.45-3.26
		c-1.55-3.16-1.73-3.82-1.26-4.73c0.3-0.58,0.99-0.99,1.51-0.91c0.19,0.04,0.65,0.24,1.01,0.46c1.11,0.66,2.83,2.93,4.05,5.37
		c0.6,1.2,1.79,3.86,2.09,4.67c0.59,1.64,1.32,5.14,1.69,8.15C82.77,37.84,82.66,43.15,82.31,45.01z"/>
</g>
</svg>
