<?xml version="1.0" encoding="UTF-8"?>
<svg id="Layer_1" xmlns="http://www.w3.org/2000/svg" version="1.1" viewBox="0 0 100 100">
  <!-- Generator: Adobe Illustrator 29.5.0, SVG Export Plug-In . SVG Version: 2.1.0 Build 137)  -->
  <g id="Generative_Object">
    <path d="M38.74,10.49c4.85.87,8.28,5.43,8.92,9.96.37.19,1.1-.18,1.22-.19,1.26,0,2.39.11,3.66.19.43-4.11,3.56-8.25,7.61-9.58,2.7-1.3,6.83.89,2.82,2.44-4.32.15-7.69,4.01-7.51,8.36,2.67,1.59,5.82,4.43,6.38,7.98.54,2.52.23,4.71-.75,7.14-.84,6.79,17.37-17.69,21.23-17.28,2.58-1,5.43-1.01,8.08-.38,13.59,4.87,12.47,21.9-.94,26.3-2.43-.17,4.12,3.57,1.31,11.08-2.06,5.17-8.43,8.39-13.71,6.2-2.24-.44-5.12-4.16-6.48-5.26-1.04.46-.16,3.93-.66,5.07-1.76,10.06-7.14,15.18-15.4,19.91-2.45,1.32-3.09,4.94-4.6,7.14-4.4-7.59-.92-5.47-9.77-10.14-6.6-5.09-10.45-13.61-10.42-21.79-2.81,1.98-4.75,5.29-8.83,5.64-9.43,1.51-16.49-10.07-9.77-17.37.08-.75-.39-.35-.57-.47-.55-.24-.84-.29-1.13-.38-11.83-4.92-12.9-20.35-.75-25.54,2.91-1.09,6.3-1.11,9.2,0,5.09,1.57,17.43,17.18,20.19,18.59,2.17.58-.2-3.04-.1-3.76-1.21-5.26,2.12-10.55,6.76-12.87-.18-3.68-1.93-6.81-5.64-7.8-4.08-.47-6.16-3.37-.38-3.19h0Z" style="fill: #2c2d36;"/>
    <g>
      <path d="M14.51,21.76c8.84,2.06,14.31,13.12,21.41,18.5l-1.41,1.97c-6.13.23-12.73-.57-18.69.56-1.83.49-3.53-.04-5.26-.56-5.15-2.13-9.24-8.15-6.95-13.71,1.73-4.16,6.29-7.47,10.89-6.76h0Z" style="fill: #85c8f0;"/>
      <path d="M87.95,21.76c11.55,2.13,12.16,16.12,1.5,20.47-1.62.56-3.48,1.09-5.07.57-6.09-1.19-12.66-.29-18.88-.56l-1.41-1.78c7.25-5.23,14.32-19.51,23.86-18.69h0Z" style="fill: #85c8f0;"/>
      <path d="M31.61,48.24c-.56,1.2-1.05,3.18-1.31,4.32-.65,1.06-7.1,6.92-8.26,7.33-4.45,1.8-10.03-1.65-10.52-6.39-.57-3.13,1.93-6.45,4.7-7.7,5.03-1.39,11.2.2,16.44-.38-.45.91-.71,1.86-1.03,2.82h0Z" style="fill: #85c8f0;"/>
      <path d="M82.32,45.43c2.22.13,4.74,2.61,5.64,4.51.55,1.27.48,2.98.38,4.32-.81,3.73-5,6.79-8.83,6.01-2.36.08-8.36-6.1-9.77-7.7-.6-2.09-1.12-5.04-2.44-6.95v-.19c4.8.36,10.31-.48,15.03,0h0Z" style="fill: #85c8f0;"/>
      <g>
        <path d="M51.51,23.07c2.71.27,6.12,3.36,7.14,5.82.61,1.71.57,3.88.19,5.64-1.63,4.66-6.05,7.21-10.89,6.38-3.15-.59-6.79-4.26-7.14-7.51-.96-5.84,4.9-11.45,10.71-10.33h0Z" style="fill: #fecb32;"/>
        <path d="M45.69,43.17c4.74,1.79,9.92.23,13.62-3.01l5.35,6.76-29.21.19,5.26-7.14c1.7,1.54,2.73,2.48,4.98,3.19Z" style="fill: #fecb32;"/>
        <path d="M67.29,59.7c-.21,1.41-.15,3.44-1.03,4.51h-32.59c-.82-1.84-1.42-5.85-.66-7.7h34c.45.2.3,2.66.28,3.19Z" style="fill: #fecb32;"/>
        <path d="M61.85,73.41v.19c-8.26,8.63-15.46,9.35-23.39-.19h23.39Z" style="fill: #ffb410;"/>
      </g>
    </g>
  </g>
</svg>