<?xml version="1.0" encoding="UTF-8"?>
<svg id="Layer_1" xmlns="http://www.w3.org/2000/svg" version="1.1" viewBox="0 0 195.4 207.3">
  <!-- Generator: Adobe Illustrator 29.5.0, SVG Export Plug-In . SVG Version: 2.1.0 Build 137)  -->
  <g id="Generative_Object">
    <path d="M76.37,28.99c9.17,1.64,15.65,10.26,16.86,18.81.7.35,2.07-.34,2.31-.36,2.38,0,4.51.21,6.92.36.82-7.76,6.73-15.58,14.37-18.1,5.11-2.45,12.9,1.68,5.32,4.61-8.17.28-14.53,7.58-14.19,15.79,5.05,3,10.99,8.37,12.06,15.08,1.02,4.77.43,8.9-1.42,13.48-1.58,12.83,32.82-33.43,40.1-32.65,4.88-1.88,10.25-1.91,15.26-.71,25.68,9.2,23.56,41.38-1.77,49.68-4.6-.32,7.79,6.75,2.48,20.94-3.9,9.77-15.93,15.86-25.9,11.71-4.24-.84-9.68-7.86-12.24-9.94-1.96.87-.3,7.43-1.24,9.58-3.32,19.01-13.48,28.68-29.1,37.61-4.62,2.49-5.84,9.34-8.69,13.49-8.31-14.34-1.74-10.34-18.45-19.16-12.47-9.62-19.75-25.71-19.69-41.16-5.3,3.75-8.97,9.99-16.68,10.65-17.82,2.85-31.15-19.03-18.45-32.82.16-1.41-.73-.67-1.07-.89-1.03-.46-1.59-.54-2.13-.71-22.35-9.29-24.37-38.44-1.42-48.26,5.5-2.06,11.9-2.09,17.39,0,9.61,2.96,32.92,32.46,38.15,35.13,4.1,1.09-.37-5.75-.18-7.1-2.28-9.93,4-19.93,12.77-24.31-.34-6.95-3.65-12.87-10.65-14.73-7.71-.88-11.63-6.37-.71-6.03Z" style="fill: #2c2d36;"/>
    <g>
      <path d="M30.59,50.28c16.7,3.89,27.04,24.79,40.45,34.95l-2.66,3.73c-11.58.43-24.05-1.07-35.31,1.06-3.46.93-6.67-.07-9.94-1.06-9.73-4.03-17.46-15.4-13.13-25.91,3.26-7.85,11.88-14.12,20.58-12.77Z" style="fill: #85c8f0;"/>
      <path d="M169.34,50.28c21.83,4.03,22.97,30.45,2.84,38.68-3.06,1.06-6.58,2.06-9.58,1.07-11.51-2.24-23.92-.55-35.66-1.06l-2.66-3.37c13.69-9.88,27.05-36.85,45.07-35.31Z" style="fill: #85c8f0;"/>
      <path d="M62.89,100.32c-1.06,2.26-1.99,6.01-2.48,8.16-1.23,2-13.42,13.07-15.61,13.84-8.41,3.41-18.94-3.11-19.87-12.07-1.07-5.92,3.65-12.18,8.87-14.55,9.5-2.63,21.15.38,31.05-.71-.85,1.72-1.34,3.51-1.95,5.32Z" style="fill: #85c8f0;"/>
      <path d="M158.7,95c4.19.25,8.95,4.93,10.65,8.52,1.04,2.39.9,5.63.71,8.16-1.53,7.04-9.44,12.83-16.68,11.36-4.45.15-15.79-11.53-18.45-14.55-1.14-3.94-2.11-9.53-4.61-13.13v-.35c9.07.68,19.48-.91,28.39,0Z" style="fill: #85c8f0;"/>
      <g>
        <path d="M100.5,52.77c5.12.51,11.57,6.35,13.48,11,1.15,3.24,1.07,7.33.35,10.65-3.08,8.8-11.43,13.63-20.58,12.06-5.96-1.12-12.83-8.04-13.48-14.19-1.81-11.04,9.25-21.63,20.23-19.52Z" style="fill: #fecb32;"/>
        <path d="M89.5,90.74c8.95,3.39,18.75.44,25.73-5.68l10.11,12.78-55.18.35,9.94-13.48c3.22,2.91,5.16,4.69,9.4,6.03Z" style="fill: #fecb32;"/>
        <path d="M130.31,121.97c-.4,2.67-.28,6.49-1.95,8.52,0,0-61.57,0-61.57,0-1.55-3.48-2.69-11.06-1.24-14.55,0,0,64.23,0,64.23,0,.85.38.57,5.03.53,6.03Z" style="fill: #fecb32;"/>
        <path d="M120.02,147.87v.35c-15.61,16.31-29.21,17.67-44.18-.35h44.18Z" style="fill: #ffb410;"/>
      </g>
    </g>
  </g>
</svg>