<?xml version="1.0" encoding="UTF-8"?>
<svg id="Layer_1" xmlns="http://www.w3.org/2000/svg" version="1.1" viewBox="0 0 100 100">
  <!-- Generator: Adobe Illustrator 29.5.0, SVG Export Plug-In . SVG Version: 2.1.0 Build 137)  -->
  <g id="Layer_11">
    <g>
      <path d="M93.48,95.84c-.36-5.03-1.3-18.29-13.47-23.57-6.63-2.85-5.8-11.55-5.08-15.23,3.63.52,7.05-2.12,6.58-5.39C77.48,20.41,60.85,6.06,53.49,1.09c-2.07-1.4-5.03-1.4-7.1,0-7.36,4.92-23.93,19.27-28.03,50.3-.41,3.32,3,5.96,6.68,5.39.67,3.89,1.19,12.07-5.18,14.82-12.17,5.28-13.11,18.55-13.47,23.57,0,.31-.05.57-.05.78-.1,1.55.93,2.95,2.43,3.26.21.05.41.05.67.05,1.3,0,2.49-.83,2.9-2.07.05-.1,4.46-12.12,14.4-13.57,6.84-.98,11.55-4.09,14.76-8.29.57,1.09,1.24,2.18,2.12,3.16,1.45,1.61,1.35,2.59,1.35,2.9-.21,2.59-4.2,5.8-7.46,8.39-.88.73-1.81,1.45-2.64,2.18-1.04.88-1.4,2.38-.83,3.63.52,1.14,1.61,1.87,2.85,1.87h.41c.21,0,5.03-.67,10.21-2.33,7.67-2.43,12.12-5.96,13.26-10.31.57-2.07.73-3.89.67-5.49,2.85,2.49,6.58,4.3,11.55,5.08,9.95,1.45,14.35,13.47,14.4,13.57.47,1.24,1.66,2.07,2.95,2.07s.41,0,.67-.05c1.5-.31,2.59-1.71,2.43-3.32.05-.26.05-.52,0-.83h0ZM58.67,63.1c-3.42,0-6.48-1.61-8.44-4.04-.67-.83-1.97-.83-2.69,0-1.97,2.49-5.03,4.04-8.44,4.04-6.22,0-11.24-5.23-10.88-11.5.31-5.65,5.03-10.15,10.67-10.26,3.52,0,6.63,1.55,8.65,4.04.67.83,1.97.83,2.69,0,2.02-2.54,5.18-4.09,8.65-4.04,5.65.1,10.36,4.66,10.67,10.26.31,6.27-4.66,11.5-10.88,11.5Z" style="fill: #8f53c9;"/>
      <path d="M41.83,53.2c-1.14-.21-2.02-1.14-2.18-2.28-.16-.93.16-1.87.73-2.43s.16-1.4-.57-1.5h-1.5c-2.38.31-4.3,2.28-4.56,4.71-.31,3.16,2.18,5.85,5.28,5.85s3.94-1.24,4.77-3c.31-.67-.21-1.4-.98-1.3h-.98s0-.05,0-.05Z" style="fill: #8f53c9;"/>
      <path d="M61.62,53.2c-1.14-.21-2.02-1.14-2.18-2.28-.16-.93.16-1.87.73-2.43s.16-1.4-.57-1.5h-1.5c-2.38.31-4.3,2.28-4.56,4.71-.31,3.16,2.18,5.85,5.28,5.85s3.94-1.24,4.77-3c.31-.67-.21-1.4-.98-1.3h-.98s0-.05,0-.05Z" style="fill: #8f53c9;"/>
    </g>
  </g>
</svg>