<?xml version="1.0" encoding="UTF-8"?>
<svg id="Layer_1" xmlns="http://www.w3.org/2000/svg" version="1.1" viewBox="0 0 195.4 207.3">
  <!-- Generator: Adobe Illustrator 29.5.0, SVG Export Plug-In . SVG Version: 2.1.0 Build 137)  -->
  <path d="M44.45,72.05l-13.23,22.51v2.72l.12,1.48.25,1.61.37.99.25.87.74,2.1.25.74.49.87,1.36,2.23,1.86,2.84,2.35,3.22,5.57,7.54,5.94,8.41,11.13,14.84,4.95,6.56c3.37,2.96,7.66,5.32,12.24,5.32l1.98.12,1.11-.12.99-.12,4.7-.99,3.22-1.24,4.08-1.73,5.32-2.35,5.81-2.72,6.56-2.84,6.93-3.22,14.1-6.68,13.48-6.43,11.63-5.44,11.01-5.32.25-.25.99-.62,1.24-1.11c4.23-3.9,4.16-9.92,1.48-14.72l-1.24-2.84-2.84-6.06-3.83-7.17-60.73-6.56-60.85-6.43" style="fill: #ddd1b6; fill-rule: evenodd;"/>
  <polyline points="44.45 72.05 31.22 94.56 31.22 97.28 31.59 100.37 32.95 104.33 33.69 105.82 34.93 108.04 39.26 114.23 50.76 130.18 66.84 151.58 68.32 152.81 69.93 154.18 72.4 155.29 75.37 156.28 79.08 156.9 80.94 157.02 83.16 156.77 87.86 155.78 95.16 152.69 106.29 147.74 133.75 135 169.98 117.69 171.22 116.95 172.46 115.83 173.82 114.35 174.93 112.25 175.67 109.77 175.67 106.81 174.93 103.47 169.61 92.21 166.03 84.79 105.3 78.36 44.45 72.05" style="fill: none; stroke: #000; stroke-linecap: round; stroke-linejoin: round; stroke-width: 1.89px;"/>
  <path d="M49.64,67.85l49.84-20.28,3.09-1.24,4.45-1.61c4.6-1.15,23.14-8.61,27.83-4.45l.37.37,28.82,40.07c3.68,5.01,2.59,11.91-3.59,14.1l-35.25,14.47-3.71,1.73-5.81,2.6-3.71,1.61c-7.95,3.22-28.32,12.39-37.35,7.79l-.49-.25-.99-.99-.25-.37-26.96-39.45-.74-1.11-.37-.99-.49-1.24-.25-.99-.12-.99v-.99c-.11-1.99.77-4,2.1-5.44l.74-.62.74-.74.99-.62,1.11-.37" style="fill: #f7efe2; fill-rule: evenodd;"/>
  <path d="M49.64,67.85l49.84-20.28,3.09-1.24,4.45-1.61c4.6-1.15,23.14-8.61,27.83-4.45l.37.37,28.82,40.07c3.68,5.01,2.59,11.91-3.59,14.1l-35.25,14.47-3.71,1.73-5.81,2.6-3.71,1.61c-7.95,3.22-28.32,12.39-37.35,7.79l-.49-.25-.99-.99-.25-.37-26.96-39.45-.74-1.11-.37-.99-.49-1.24-.25-.99-.12-.99v-.99c-.11-1.99.77-4,2.1-5.44l.74-.62.74-.74.99-.62,1.11-.37" style="fill: none; stroke: #000; stroke-linecap: round; stroke-linejoin: round; stroke-width: 1.89px;"/>
  <line x1="76.24" y1="129.56" x2="70.67" y2="149.85" style="fill: none; stroke: #000; stroke-linecap: round; stroke-linejoin: round; stroke-width: 1.89px;"/>
  <text transform="translate(99.96 98.67) rotate(-20.28) scale(1.06 .94) skewX(18.12)" style="font-family: Courier, Courier; font-size: 60.36px;"><tspan x="0" y="0">v</tspan></text>
</svg>