<svg viewBox="0 0 400 300" style="pointer-events: all;"><path fill="#ffffff44" d="M0,0L400,0L350,50L50,50Z"></path><path fill="#ffffff44" d="M400,0L350,50L350,250L400,300Z"></path><path fill="#ffffff44" d="M400,300L350,250L50,250L0,300Z"></path><path fill="#ffffff44" d="M0,0L50,50L50,250L0,300Z"></path><path fill="hsl(91.5646179666849deg 90% 56% / 50%)" stroke-linejoin="round" stroke-width="1" stroke="hsl(91.5646179666849deg 90% 56% / 100%)" d="M195.38677,88.20519C182.27683,89.1334,195.17233,87.11852,182.93505,89.96979C170.69777,92.82107,181.28152,88.75198,170.91221,93.90774C160.54289,99.0635,169.57179,92.86406,162.19641,100.28131C154.82103,107.69857,160.76236,99.83507,156.16144,108.74225C151.56052,117.64944,155.35373,107.73159,152.99457,118.09569C150.63542,128.45979,152.02792,118.40584,151.44312,129.47045C150.85832,140.53507,151.04223,129.33993,151.82498,140.22491C152.60772,151.10989,151.26532,139.85517,153.00862,151.24041C154.75191,162.62566,152.34281,150.91447,155.31156,162.99541C158.28031,175.07635,154.49187,164.30859,158.94611,175.40229C163.40035,186.49599,158.57568,176.62606,164.22005,185.1828C169.86442,193.73955,163.43865,185.61868,170.23485,192.51578C177.03105,199.41289,170.6775,193.646,177.81245,198.97701C184.94739,204.30802,177.5259,199.35568,184.50474,203.1778C191.48357,206.99992,184.15112,203.7591,191.77011,206.62125C199.38911,209.4834,191.02877,207.6805,199.74272,208.9021C208.45668,210.12369,200.3302,209.5509,209.19802,209.06444C218.06585,208.57799,210.36994,209.99343,217.47837,207.92919C224.5868,205.86495,218.17977,208.40456,223.41487,204.93597C228.64997,201.46737,223.71475,205.28666,227.94857,200.99199C232.1824,196.69733,227.84648,202.016,231.88252,196.34664C235.91857,190.67728,232.49073,196.52565,236.02066,189.65328C239.55059,182.7809,235.96295,190.84009,238.94238,182.60189C241.92182,174.36369,238.95589,183.7165,241.97953,173.17688C245.00316,162.63725,242.28593,172.90992,244.98966,161.52264C247.69338,150.13537,245.38311,161.25117,247.38698,150.40233C249.39085,139.55349,247.6141,150.32525,248.9974,139.82496C250.38071,129.32467,249.40264,140.12515,250.15359,129.40174C250.90454,118.67834,250.8863,128.34474,250.4993,118.37815C250.1123,108.41156,251.45013,117.9687,249.37959,109.46857C247.30904,100.96844,250.56496,108.50727,246.3582,101.37789C242.15145,94.24851,247.96878,100.38259,240.96608,95.2098C233.96338,90.03701,241.89079,94.25269,232.35281,91.03231C222.81482,87.81194,233.48906,90.22851,221.89012,88.76905C210.29117,87.30959,222.40659,88.39532,209.15492,88.11339ZM174.42119121551514,126.67824625968933L175.58313608169556,125.67012012004852L176.94343328475952,124.66508746147156L179.34459447860718,123.56671392917633L183.2327127456665,122.8678286075592L187.1009111404419,123.04220795631409L191.17494821548462,124.31691884994507L194.25004720687866,126.297327876091L195.61536312103271,127.70738303661346L194.41999197006226,128.19525003433228L191.85034036636353,128.6773681640625L188.23108673095703,129.5719563961029L184.37763452529907,130.17233312129974L180.45021295547485,129.95739877223969L177.89558172225952,129.14986610412598L176.12543106079102,128.16404700279236ZM191.53451919555664,174.50281977653503L194.05548572540283,173.77703189849854L197.19362258911133,172.92729020118713L201.1570692062378,171.85850143432617L206.2727689743042,170.68487405776978L211.33387088775635,171.5063989162445L215.8811092376709,170.4342484474182L219.40903663635254,171.33890390396118L222.05913066864014,172.33550548553467L223.82876873016357,173.21056723594666L225.24924278259277,173.99393320083618L223.68438243865967,175.25283694267273L221.62854671478271,176.43206119537354L218.80152225494385,177.84236669540405L215.11282920837402,178.831547498703L210.8452558517456,179.27552461624146L205.88703155517578,178.9732575416565L201.2268304824829,178.12862992286682L197.1872091293335,176.7798364162445L194.0753936767578,175.77014565467834ZM219.01395320892334,127.26342380046844L220.3315258026123,125.73668360710144L223.006010055542,123.75943064689636L226.90789699554443,122.41993546485901L230.88526725769043,122.20057547092438L234.3574047088623,122.87107408046722L236.56318187713623,124.0620106458664L238.3902072906494,126.01946890354156L237.13326454162598,127.51624882221222L235.56151390075684,128.46549153327942L233.25695991516113,129.14714813232422L229.79915142059326,129.38275337219238L225.9817361831665,128.90825271606445L222.5255250930786,128.13228964805603L220.22783756256104,127.62477099895477Z"></path></svg>